<?xml version="1.0" encoding="UTF-8"?>
<svg id="Layer_2" data-name="Layer 2" xmlns="http://www.w3.org/2000/svg" viewBox="0 0 200 200">
  <defs>
    <style>
      .cls-1 {
        fill: none;
      }

      .cls-1, .cls-2, .cls-3, .cls-4 {
        stroke-width: 0px;
      }

      .cls-2 {
        fill: #d9251d;
      }

      .cls-3 {
        fill: #009b43;
      }

      .cls-4 {
        fill: #ffcf44;
      }
    </style>
  </defs>
  <g id="square-rounded">
    <g>
      <g>
        <path class="cls-3" d="M5.86,194.14c3.62,3.62,8.62,5.86,14.14,5.86h160c11.05,0,20-8.95,20-20V20c0-5.52-2.24-10.52-5.86-14.14L5.86,194.14Z"/>
        <path class="cls-4" d="M5.86,194.14L194.14,5.86c-3.62-3.62-8.62-5.86-14.14-5.86H20C8.95,0,0,8.95,0,20v160c0,5.52,2.24,10.52,5.86,14.14"/>
      </g>
      <g>
        <path class="cls-2" d="M51.53,21.11l5.66,17.43c.22.68.86,1.15,1.58,1.15h18.18c1.61,0,2.28,2.06.98,3.01l-14.71,10.68c-.58.42-.83,1.17-.6,1.86l5.62,17.29c.5,1.53-1.26,2.8-2.56,1.86l-14.71-10.69c-.58-.42-1.37-.42-1.95,0l-14.71,10.68c-1.3.95-3.06-.33-2.56-1.86l5.62-17.29c.22-.68-.02-1.44-.6-1.86l-14.71-10.69c-1.3-.95-.63-3.01.98-3.01h18.18c.72,0,1.36-.46,1.58-1.15l5.66-17.43c.48-1.49,2.59-1.49,3.07,0"/>
        <circle class="cls-1" cx="50" cy="50.11" r="30"/>
      </g>
    </g>
  </g>
</svg>