<?xml version="1.0" encoding="UTF-8"?>
<svg id="Layer_2" data-name="Layer 2" xmlns="http://www.w3.org/2000/svg" viewBox="0 0 200 200">
  <defs>
    <style>
      .cls-1 {
        fill: #213572;
      }

      .cls-1, .cls-2, .cls-3, .cls-4 {
        stroke-width: 0px;
      }

      .cls-2 {
        fill: #009b43;
      }

      .cls-3 {
        fill: #ffcf44;
      }

      .cls-4 {
        fill: #f0f0f0;
      }
    </style>
  </defs>
  <g id="square-rounded">
    <g>
      <rect class="cls-2" width="200" height="200" rx="20" ry="20"/>
      <g>
        <path class="cls-3" d="M99.94,155.89L12.06,101.81c-1.35-.83-1.35-2.79,0-3.61l87.88-54.08c.68-.42,1.54-.42,2.22,0l87.88,54.08c1.35.83,1.35,2.79,0,3.61l-87.88,54.08c-.68.42-1.54.42-2.22,0Z"/>
        <g>
          <path class="cls-1" d="M81.19,90.41c-4.96,0-9.82.47-14.53,1.36-.63,2.64-.97,5.39-.97,8.23,0,19.53,15.83,35.36,35.36,35.36,16.16,0,29.78-10.85,34-25.66-.18.62-.37,1.23-.58,1.84-13.92-13.09-32.66-21.12-53.28-21.12Z"/>
          <path class="cls-1" d="M136.22,103.66c.12-1.2.19-2.42.19-3.66,0-19.53-15.83-35.36-35.36-35.36-13.83,0-25.8,7.94-31.61,19.51,3.84-.53,7.76-.82,11.75-.82,20.98,0,40.2,7.66,55.03,20.32Z"/>
          <path class="cls-4" d="M135.52,107.86c.02-.1.05-.2.07-.29.12-.53.22-1.06.31-1.6.02-.13.05-.25.07-.37.1-.63.19-1.26.25-1.9,0-.01,0-.03,0-.04-14.83-12.66-34.05-20.32-55.03-20.32-3.99,0-7.91.28-11.75.82,0,0,0,0,0,0-1.2,2.39-2.14,4.94-2.77,7.6,0,0,0,0,0,0,4.71-.89,9.56-1.36,14.53-1.36,20.62,0,39.36,8.03,53.28,21.12.21-.6.4-1.22.58-1.84.01-.05.03-.09.04-.14.16-.56.3-1.13.43-1.7Z"/>
        </g>
      </g>
    </g>
  </g>
</svg>