<?xml version="1.0" encoding="UTF-8"?>
<svg id="Layer_2" data-name="Layer 2" xmlns="http://www.w3.org/2000/svg" viewBox="0 0 200 200">
  <defs>
    <style>
      .cls-1 {
        fill: #213572;
      }

      .cls-1, .cls-2, .cls-3, .cls-4 {
        stroke-width: 0px;
      }

      .cls-2 {
        fill: #f0f0f0;
      }

      .cls-3 {
        fill: none;
      }

      .cls-4 {
        fill: #d9251d;
      }
    </style>
  </defs>
  <g id="square-rounded">
    <g>
      <path class="cls-2" d="M100,0h80c11.04,0,20,8.96,20,20v46.67h-100V0h0Z"/>
      <rect class="cls-4" y="66.67" width="200" height="66.67"/>
      <path class="cls-2" d="M0,133.33h200v46.67c0,11.04-8.96,20-20,20H20c-11.04,0-20-8.96-20-20v-46.67h0Z"/>
      <path class="cls-1" d="M20,0h80v66.67H0V20C0,8.96,8.96,0,20,0Z"/>
      <g>
        <g>
          <path class="cls-2" d="M30.77,18.86l2.83,8.72c.11.34.43.57.79.57h9.09c.81,0,1.14,1.03.49,1.5l-7.35,5.34c-.29.21-.41.59-.3.93l2.81,8.64c.25.77-.63,1.4-1.28.93l-7.35-5.34c-.29-.21-.69-.21-.98,0l-7.35,5.34c-.65.47-1.53-.16-1.28-.93l2.81-8.64c.11-.34-.01-.72-.3-.93l-7.35-5.34c-.65-.47-.32-1.5.49-1.5h9.09c.36,0,.68-.23.79-.57l2.83-8.72c.24-.74,1.29-.74,1.53,0"/>
          <circle class="cls-3" cx="30" cy="33.36" r="15"/>
        </g>
        <g>
          <path class="cls-2" d="M70.77,18.86l2.83,8.72c.11.34.43.57.79.57h9.09c.81,0,1.14,1.03.49,1.5l-7.35,5.34c-.29.21-.41.59-.3.93l2.81,8.64c.25.77-.63,1.4-1.28.93l-7.35-5.34c-.29-.21-.69-.21-.98,0l-7.35,5.34c-.65.47-1.53-.16-1.28-.93l2.81-8.64c.11-.34-.01-.72-.3-.93l-7.35-5.34c-.65-.47-.32-1.5.49-1.5h9.09c.36,0,.68-.23.79-.57l2.83-8.72c.24-.74,1.29-.74,1.53,0"/>
          <circle class="cls-3" cx="70" cy="33.36" r="15"/>
        </g>
      </g>
    </g>
  </g>
</svg>