<?xml version="1.0" encoding="UTF-8"?>
<svg id="Layer_2" data-name="Layer 2" xmlns="http://www.w3.org/2000/svg" viewBox="0 0 200 200">
  <defs>
    <style>
      .cls-1 {
        fill: #ea5a8d;
      }

      .cls-1, .cls-2, .cls-3 {
        stroke-width: 0px;
      }

      .cls-2 {
        fill: #f0f0f0;
      }

      .cls-3 {
        fill: #01a2ce;
      }
    </style>
  </defs>
  <g id="Layer_18" data-name="Layer 18">
    <g>
      <g>
        <path class="cls-1" d="M20,200h160c11.05,0,20-8.95,20-20v-46.67H0v46.67c0,11.05,8.95,20,20,20Z"/>
        <path class="cls-3" d="M0,66.67h200V20c0-11.05-8.95-20-20-20H20C8.95,0,0,8.95,0,20v46.67Z"/>
      </g>
      <rect class="cls-2" x="0" y="66.67" width="200" height="66.67"/>
      <g>
        <path class="cls-3" d="M28.14,113.32c-.38.18-.71.21-1.01.1-.3-.11-.54-.35-.72-.74l-2.83-6.02-2.01.94c-.65.3-1.12.14-1.42-.5-.3-.64-.13-1.11.52-1.41l6.36-2.99c.65-.3,1.12-.14,1.42.5.3.64.13,1.11-.52,1.41l-2.01.94,2.83,6.02c.18.38.22.72.11,1.02-.1.3-.35.54-.73.72Z"/>
        <path class="cls-3" d="M34.81,110.33c-.38.15-.72.17-1.02.04-.29-.12-.52-.38-.68-.78l-2.78-6.92c-.16-.39-.17-.74-.05-1.03s.38-.52.78-.68l3.22-1.3c1.05-.42,1.96-.49,2.74-.21.78.28,1.35.88,1.71,1.78.28.69.34,1.34.18,1.94-.16.61-.53,1.13-1.11,1.58.54-.07,1.07.11,1.58.53l1.13.92c.25.21.41.43.49.67.08.24.07.47-.05.7-.11.22-.34.4-.68.54s-.65.18-.91.13c-.27-.05-.55-.19-.84-.43l-2.07-1.71c-.18-.15-.37-.23-.56-.24s-.39.03-.6.11l-.72.29.94,2.35c.16.39.18.74.06,1.03-.12.29-.38.52-.77.67ZM33.9,104.58l1.6-.64c.95-.38,1.28-.95.98-1.7-.3-.74-.92-.92-1.88-.54l-1.6.64.9,2.24Z"/>
        <path class="cls-3" d="M43.66,106.86c-.42.14-.78.1-1.07-.12-.29-.22-.41-.58-.36-1.07l.95-8.29c.05-.4.16-.72.34-.96.18-.24.42-.41.74-.51.3-.1.6-.11.88-.03s.57.27.84.57l5.73,6.07c.35.37.48.73.39,1.07-.09.34-.34.58-.74.72-.36.12-.66.13-.9.03-.25-.1-.5-.3-.77-.61l-.77-.88-4.22,1.4-.09,1.16c-.04.41-.12.72-.24.94-.12.22-.35.38-.7.5ZM45.12,98.6l-.27,3.5,2.6-.86-2.31-2.64h-.03Z"/>
        <path class="cls-3" d="M55.26,103.05c-.87.23-1.42-.09-1.65-.95l-1.86-7.03c-.23-.86.09-1.41.97-1.64l3.33-.88c1.04-.28,1.9-.26,2.59.04.69.3,1.13.83,1.33,1.58.13.5.12.97-.03,1.41-.15.44-.43.81-.82,1.11.58.02,1.07.19,1.46.5.39.31.67.75.82,1.32.22.85.1,1.59-.38,2.24-.48.65-1.24,1.11-2.28,1.39l-3.47.92ZM54.82,96.96l1.79-.47c.46-.12.77-.29.94-.51.17-.22.21-.5.12-.84-.09-.34-.26-.56-.52-.66-.26-.1-.61-.09-1.07.03l-1.79.47.52,1.98ZM55.87,100.92l2.03-.54c.46-.12.78-.3.95-.54.17-.23.2-.53.11-.88s-.27-.59-.53-.71c-.26-.12-.62-.11-1.09,0l-2.03.54.56,2.12Z"/>
        <path class="cls-3" d="M64.55,100.81c-.43.09-.78,0-1.04-.25-.26-.25-.34-.62-.22-1.11l1.97-8.11c.09-.39.24-.7.45-.91.21-.21.47-.35.8-.42.31-.06.61-.03.88.08.27.12.53.34.77.67l4.93,6.74c.3.41.39.78.25,1.11-.14.33-.41.54-.83.62-.37.07-.67.05-.9-.08s-.46-.36-.69-.7l-.65-.96-4.36.87-.23,1.14c-.09.4-.21.7-.35.91-.14.2-.39.34-.75.41ZM67.02,92.8l-.7,3.44,2.69-.54-1.96-2.91h-.03Z"/>
        <path class="cls-3" d="M76.51,98.48c-.42.06-.76,0-1.01-.21-.26-.2-.41-.5-.47-.91l-1.02-7.27c-.06-.42,0-.76.2-1.01s.49-.41.9-.47c.41-.06.74,0,1,.2.26.19.41.5.47.92l.9,6.43,3.41-.48c.35-.05.64,0,.86.16.22.16.35.41.4.74.05.34,0,.62-.17.84-.16.21-.42.34-.78.39l-4.68.66Z"/>
        <path class="cls-3" d="M85.27,97.48c-.41.03-.74-.05-.98-.26s-.38-.53-.42-.96l-.61-7.53c-.04-.43.05-.77.26-1.01s.52-.38.93-.42.74.05.98.26.38.53.42.96l.21,2.63,4.1-.33-.21-2.63c-.04-.43.05-.77.26-1.01s.52-.38.93-.42.74.05.98.26c.24.21.38.53.41.96l.61,7.53c.04.43-.05.77-.25,1.01-.2.24-.51.38-.92.42-.42.03-.75-.05-.99-.26-.24-.21-.38-.53-.41-.96l-.23-2.77-4.1.33.23,2.77c.04.43-.05.77-.25,1.01-.2.24-.51.38-.94.42Z"/>
        <path class="cls-3" d="M96.06,96.72c-.44,0-.77-.14-.98-.44-.21-.3-.22-.67-.02-1.13l3.39-7.63c.16-.37.37-.64.61-.82s.53-.26.86-.27c.32,0,.6.07.85.24.25.16.46.43.64.79l3.65,7.51c.22.46.24.84.05,1.14-.19.3-.5.45-.92.46-.38,0-.67-.07-.87-.24-.21-.17-.39-.44-.56-.81l-.47-1.06-4.45.08-.43,1.08c-.16.38-.33.66-.51.83-.18.17-.45.26-.82.27ZM99.93,89.28l-1.3,3.26,2.74-.05-1.41-3.21h-.03Z"/>
        <path class="cls-3" d="M112.97,96.75c-.9-.06-1.32-.54-1.26-1.43l.48-7.26c.06-.89.54-1.31,1.44-1.25l4.78.32c.68.05.99.4.95,1.05-.05.68-.41.99-1.08.95l-3.65-.24-.13,1.89,3.34.22c.68.05.99.4.95,1.07s-.4.98-1.08.93l-3.34-.22-.14,2.04,3.65.24c.68.05.99.4.95,1.07-.04.67-.4.98-1.08.93l-4.78-.32Z"/>
        <path class="cls-3" d="M130.44,98.74c-1.09-.16-1.99-.51-2.71-1.05s-1.23-1.22-1.53-2.04-.37-1.75-.22-2.77.49-1.88,1.02-2.58c.53-.7,1.21-1.2,2.06-1.5.85-.3,1.81-.37,2.9-.21.43.06.87.18,1.31.35.45.17.83.37,1.16.62.24.18.4.38.47.61.07.23.08.45.01.67s-.17.41-.33.56c-.16.16-.35.25-.56.28s-.43-.03-.66-.19c-.51-.35-1.05-.57-1.63-.66-.87-.13-1.55.02-2.06.44-.51.42-.83,1.09-.97,2-.14.92-.02,1.66.34,2.21.36.55.98.9,1.85,1.02.24.04.51.05.8.03s.58-.07.87-.16c.3-.08.55-.07.76.01.21.09.37.23.49.42.11.19.17.39.17.62s-.06.44-.19.64c-.12.2-.32.35-.59.44-.36.15-.78.24-1.28.28-.5.04-.98.02-1.46-.05Z"/>
        <path class="cls-3" d="M139.98,100.5c-.99-.21-1.8-.6-2.46-1.18-.65-.58-1.11-1.29-1.36-2.13-.25-.84-.27-1.77-.06-2.77.22-1.01.61-1.85,1.18-2.52.57-.66,1.27-1.12,2.1-1.38s1.74-.28,2.73-.07,1.8.6,2.46,1.17,1.11,1.28,1.36,2.12c.26.84.28,1.76.06,2.78-.21,1-.61,1.84-1.18,2.51s-1.28,1.13-2.11,1.39c-.83.26-1.74.29-2.72.08ZM140.43,98.37c.72.15,1.34.02,1.85-.41.52-.42.87-1.09,1.07-2s.14-1.66-.16-2.26-.81-.97-1.54-1.12c-.73-.15-1.35-.02-1.86.4-.51.42-.87,1.09-1.06,2s-.14,1.67.15,2.26c.3.6.81.97,1.54,1.13Z"/>
        <path class="cls-3" d="M148.12,102.37c-.78-.22-1.06-.72-.84-1.51l2.09-7.41c.11-.4.3-.68.56-.83.26-.16.55-.19.88-.1.29.08.5.2.63.35.13.15.26.39.4.7l2.54,6.02,1.26-4.44c.22-.78.71-1.06,1.48-.84.38.11.64.29.78.55.14.26.15.57.05.95l-2.13,7.53c-.1.34-.27.59-.5.75-.24.15-.51.19-.82.1s-.53-.21-.68-.37-.28-.39-.41-.7l-2.54-6.02-1.25,4.43c-.22.79-.72,1.07-1.49.86Z"/>
        <path class="cls-3" d="M159.01,105.64c-.39-.14-.66-.35-.8-.64-.14-.29-.14-.65,0-1.05l2.42-6.99c.29-.85.86-1.12,1.72-.83l4.44,1.54c.64.22.85.64.64,1.27-.22.64-.65.85-1.29.63l-3.27-1.13-.66,1.89,2.98,1.03c.64.22.85.64.64,1.27-.22.63-.65.84-1.29.62l-2.98-1.03-.89,2.59c-.29.85-.84,1.13-1.65.85Z"/>
        <path class="cls-3" d="M167.25,108.63c-.39-.15-.64-.37-.77-.66s-.11-.64.04-1.04l2.75-7.04c.16-.4.38-.67.67-.8.29-.13.63-.12,1.02.03.39.15.64.37.77.66s.11.64-.04,1.04l-2.75,7.04c-.16.4-.38.67-.67.8-.29.13-.63.12-1.02-.04Z"/>
        <path class="cls-3" d="M171.13,110.14c-.4-.18-.64-.45-.71-.81-.07-.36.09-.7.46-1.03l6.29-5.49c.3-.27.6-.43.89-.48.29-.06.59-.02.89.12.29.13.52.32.67.58s.24.58.24.99l.13,8.35c0,.51-.14.86-.44,1.05-.3.19-.65.2-1.03.03-.34-.15-.57-.35-.69-.59-.12-.24-.17-.56-.16-.97l.02-1.16-4.06-1.81-.85.8c-.31.28-.58.45-.81.54-.23.08-.52.05-.85-.1ZM177.77,105.03l-2.55,2.4,2.5,1.11.08-3.51h-.03Z"/>
      </g>
    </g>
  </g>
</svg>