<?xml version="1.0" encoding="UTF-8"?>
<svg id="Layer_2" data-name="Layer 2" xmlns="http://www.w3.org/2000/svg" viewBox="0 0 200 200">
  <defs>
    <style>
      .cls-1 {
        fill: #213572;
      }

      .cls-1, .cls-2, .cls-3, .cls-4, .cls-5 {
        stroke-width: 0px;
      }

      .cls-2 {
        fill: #f0f0f0;
      }

      .cls-3 {
        fill: none;
      }

      .cls-4 {
        fill: #009b43;
      }

      .cls-5 {
        fill: #ffcf44;
      }
    </style>
  </defs>
  <g id="square-rounded">
    <g>
      <path class="cls-1" d="M13.33,200h173.33c7.36,0,13.33-8.95,13.33-20V20c0-11.05-5.97-20-13.33-20H13.33C5.97,0,0,8.95,0,20v160c0,11.05,5.97,20,13.33,20Z"/>
      <g>
        <path class="cls-2" d="M98.89,155.89L11.01,101.81c-1.35-.83-1.35-2.79,0-3.61l87.88-54.08c.68-.42,1.54-.42,2.22,0l87.88,54.08c1.35.83,1.35,2.79,0,3.61l-87.88,54.08c-.68.42-1.54.42-2.22,0Z"/>
        <path class="cls-4" d="M135.36,100c0,19.53-15.83,35.36-35.36,35.36s-35.36-15.83-35.36-35.36,15.83-35.36,35.36-35.36,35.36,15.83,35.36,35.36"/>
        <g>
          <path class="cls-5" d="M101.63,69.3l6.01,18.49c.24.73.91,1.22,1.68,1.22h19.28c1.71,0,2.42,2.19,1.04,3.19l-15.6,11.33c-.62.45-.88,1.24-.64,1.97l5.96,18.34c.53,1.62-1.33,2.97-2.71,1.97l-15.6-11.33c-.62-.45-1.45-.45-2.07,0l-15.6,11.33c-1.38,1-3.24-.35-2.71-1.97l5.96-18.34c.24-.73-.02-1.52-.64-1.97l-15.6-11.33c-1.38-1-.67-3.19,1.04-3.19h19.28c.76,0,1.44-.49,1.68-1.22l6.01-18.49c.51-1.58,2.74-1.58,3.26,0"/>
          <circle class="cls-3" cx="100" cy="100.06" r="31.82"/>
        </g>
      </g>
    </g>
  </g>
</svg>