<?xml version="1.0" encoding="UTF-8"?>
<svg id="Layer_2" data-name="Layer 2" xmlns="http://www.w3.org/2000/svg" viewBox="0 0 200 200">
  <defs>
    <style>
      .cls-1 {
        fill: #213572;
      }

      .cls-1, .cls-2, .cls-3, .cls-4, .cls-5, .cls-6, .cls-7 {
        stroke-width: 0px;
      }

      .cls-2 {
        fill: #f0f0f0;
      }

      .cls-3 {
        fill: none;
      }

      .cls-4 {
        fill: #009b43;
      }

      .cls-5 {
        fill: #d9251d;
      }

      .cls-6 {
        fill: #c6c6c6;
      }

      .cls-7 {
        fill: #01a2ce;
      }
    </style>
  </defs>
  <g id="square-rounded">
    <g>
      <g>
        <rect class="cls-2" x="66.67" width="66.67" height="200"/>
        <g>
          <g>
            <path class="cls-5" d="M112.76,102.54c-.14.16-.38.16-.52,0-.95-1.1-2.34-1.8-3.91-1.8s-2.96.7-3.91,1.8c-.14.16-.38.16-.52,0-.95-1.1-2.34-1.8-3.91-1.8-1.85,0-3.47.98-4.38,2.44-.18.29-.62.17-.62-.17v-8.77c0-.74-.6-1.33-1.33-1.33h-4c-.74,0-1.33.6-1.33,1.33v8.77c0,.34-.44.46-.62.17-.91-1.46-2.53-2.44-4.38-2.44v3.42c0,.35.01.7.04,1.04.01.18.02.37.04.55,4.08.05,4.12,4,8.26,4s4.17-4,8.33-4,4.17,4,8.34,4,4.17-3.94,8.26-4c.02-.18.03-.37.04-.55.02-.34.04-.69.04-1.04v-3.41c-1.56,0-2.96.69-3.91,1.79Z"/>
            <path class="cls-7" d="M108.33,109.75c-4.17,0-4.17-4-8.34-4s-4.16,4-8.33,4-4.17-3.94-8.26-4c.15,1.63.55,3.2,1.14,4.66.09.22.19.45.29.67.04.09.08.17.12.26,1.85,3.88,5.16,6.92,9.21,8.44,1.82.68,3.78,1.05,5.84,1.05s4.02-.37,5.84-1.05c4.05-1.52,7.36-4.56,9.21-8.44.04-.08.08-.17.12-.26.1-.22.2-.44.29-.67.59-1.46.98-3.03,1.14-4.66-4.08.05-4.12,4-8.26,4Z"/>
            <path class="cls-7" d="M83.33,79.17v7.75c2.08,0,3.13,1,4.17,2s2.09,2,4.17,2,3.13-1,4.17-2,2.08-2,4.16-2,3.13,1,4.17,2c1.04,1,2.09,2,4.17,2s3.13-1,4.17-2,2.09-2,4.17-2v-7.75h-33.33Z"/>
            <rect class="cls-1" x="89.5" y="96.57" width="4.33" height="2.67" rx="1" ry="1" transform="translate(189.57 6.23) rotate(90)"/>
            <rect class="cls-5" x="86.33" y="92.92" width="10.67" height="2.67" rx="1" ry="1"/>
            <g>
              <path class="cls-2" d="M107.61,86.92c1.47,0,2.76-.64,3.45-1.59-.69-.95-1.97-1.59-3.45-1.59-1.27,0-2.4.48-3.13,1.21-.21.21-.21.55,0,.76.73.74,1.86,1.21,3.13,1.21Z"/>
              <path class="cls-2" d="M110.27,85.32l1.61,1.61c.17.17.45.05.45-.19v-1.42s0-1.42,0-1.42c0-.24-.29-.36-.45-.19l-1.61,1.61Z"/>
            </g>
            <g>
              <path class="cls-2" d="M99.28,83.58c1.47,0,2.76-.64,3.45-1.59-.69-.95-1.97-1.59-3.45-1.59-1.27,0-2.4.48-3.13,1.21-.21.21-.21.55,0,.76.73.74,1.86,1.21,3.13,1.21Z"/>
              <path class="cls-2" d="M101.93,81.99l1.61,1.61c.17.17.45.05.45-.19v-1.42s0-1.42,0-1.42c0-.24-.29-.36-.45-.19l-1.61,1.61Z"/>
            </g>
            <g>
              <path class="cls-2" d="M90.95,86.92c1.47,0,2.76-.64,3.45-1.59-.69-.95-1.97-1.59-3.45-1.59-1.27,0-2.4.48-3.13,1.21-.21.21-.21.55,0,.76.73.74,1.86,1.21,3.13,1.21Z"/>
              <path class="cls-2" d="M93.6,85.32l1.61,1.61c.17.17.45.05.45-.19v-1.42s0-1.42,0-1.42c0-.24-.29-.36-.45-.19l-1.61,1.61Z"/>
            </g>
            <path class="cls-2" d="M108.33,115.09c-4.17,0-4.17-4-8.34-4s-4.16,4-8.33,4c-3.54,0-4.08-2.88-6.71-3.75,1.6,3.34,4.28,6.07,7.58,7.73,1.01.51,2.23.36,3.05-.42,1.13-1.07,2.16-2.23,4.41-2.23s3.29,1.16,4.42,2.24c.82.78,2.04.92,3.05.42,3.31-1.66,5.99-4.39,7.58-7.73-2.63.87-3.17,3.75-6.71,3.75Z"/>
          </g>
          <g>
            <circle class="cls-3" cx="100" cy="68.33" r="6.67" transform="translate(-1.12 134.99) rotate(-67.74)"/>
            <g>
              <path class="cls-2" d="M96.37,74.53c-.36,0-.71-.18-.92-.47-.21-.29-.27-.65-.17-1l1.13-3.49-2.96-2.15c-.4-.31-.56-.82-.4-1.28.16-.46.57-.75,1.06-.75h3.65l1.13-3.49c.21-.51.64-.81,1.12-.81s.91.32,1.06.79l1.13,3.48h3.68c.5,0,.93.31,1.08.78.15.46-.02.97-.43,1.26l-2.96,2.15,1.13,3.48c.11.35.05.72-.16,1.01-.21.29-.55.46-.91.46-.24,0-.47-.08-.67-.22l-2.95-2.13-2.97,2.15c-.18.14-.42.22-.66.22Z"/>
              <path class="cls-6" d="M100,61.78c.18,0,.36.11.42.32l1.17,3.63c.05.19.24.32.43.32h3.84c.45,0,.64.56.27.83l-3.09,2.24c-.16.11-.24.32-.16.51l1.17,3.63c.1.32-.15.6-.44.6-.09,0-.19-.03-.28-.09l-3.07-2.21c-.08-.05-.17-.08-.27-.08s-.19.03-.27.08l-3.09,2.24c-.08.06-.18.09-.27.09-.29,0-.55-.28-.45-.6l1.17-3.63c.05-.19,0-.4-.16-.51l-3.09-2.24c-.35-.27-.19-.83.27-.83h3.81c.19,0,.37-.13.43-.32l1.17-3.63c.09-.23.29-.34.48-.34M100,60.44c-.75,0-1.42.46-1.71,1.17-.01.03-.03.06-.04.1l-.98,3.02h-3.17c-.78,0-1.44.47-1.69,1.2-.25.73,0,1.54.61,2.01.01,0,.02.02.03.02l2.57,1.86-.98,3.02c-.18.56-.08,1.14.26,1.6.34.46.89.74,1.46.74.39,0,.75-.12,1.06-.35l2.57-1.86,2.55,1.84c.32.23.68.35,1.06.35.57,0,1.11-.27,1.45-.73.34-.46.44-1.04.26-1.6l-.98-3.03,2.57-1.86c.63-.45.9-1.26.67-2-.24-.74-.93-1.24-1.71-1.24h-3.19l-.98-3.02c-.23-.74-.91-1.24-1.69-1.24h0Z"/>
            </g>
          </g>
          <path class="cls-6" d="M116.67,79.17v25c0,9.2-7.46,16.67-16.67,16.67s-16.67-7.46-16.67-16.67v-25h33.33M116.67,77.17h-33.33c-1.1,0-2,.9-2,2v25c0,10.29,8.37,18.67,18.67,18.67s18.67-8.37,18.67-18.67v-25c0-1.1-.9-2-2-2h0Z"/>
          <g>
            <path class="cls-4" d="M75.33,81.88c1.1,0,2,.9,2,2v2c0,1.1-.9,2-2,2s-2-.9-2-2v-2c0-1.1.9-2,2-2Z"/>
            <path class="cls-4" d="M75.33,90.6c1.1,0,2,.9,2,2v2c0,1.1-.9,2-2,2s-2-.9-2-2v-2c0-1.1.9-2,2-2Z"/>
            <path class="cls-4" d="M75.33,99.31c1.1,0,2,.9,2,2v2c0,.28-.06.54-.16.78-.1.23-.23.43-.4.6-.34.35-.83.59-1.38.62h0c-.55.03-1.06-.18-1.44-.55-.19-.18-.35-.42-.46-.67-.1-.24-.16-.5-.16-.78v-2c0-1.1.9-2,2-2Z"/>
            <path class="cls-4" d="M75.66,108.01h0c.55-.08,1.07.05,1.48.33.21.14.37.31.52.5.16.19.27.41.33.66l.23.89c.07.3.15.59.27.88.35.94-.2,2.06-1.21,2.51h0c-1.01.45-2.17-.11-2.59-1.25-.14-.34-.23-.68-.31-1.03l-.27-1.05c-.07-.29-.09-.58-.05-.85.04-.27.16-.53.31-.75.3-.44.76-.75,1.3-.83Z"/>
            <path class="cls-4" d="M78.49,116.2h0c.97-.53,2.18-.26,2.7.59l1.1,1.47c.28.42.46.87.41,1.38-.04.49-.26,1-.66,1.38h0c-.4.38-.92.55-1.45.51-.51-.05-1.09-.27-1.43-.77l-1.29-1.73c-.63-1.03-.35-2.3.62-2.83Z"/>
            <path class="cls-4" d="M84,122.9c.36-.42.84-.64,1.34-.71.5-.08,1.01.02,1.41.32.25.18.48.38.74.54l.79.48c.44.25.7.72.84,1.18.14.47.11,1.01-.14,1.5h0c-.25.49-.68.84-1.19.99-.52.16-1.08.05-1.59-.26l-.92-.56c-.31-.18-.58-.42-.88-.63-.48-.36-.78-.86-.85-1.37-.07-.52.1-1.06.45-1.48Z"/>
            <path class="cls-4" d="M124.67,81.88c1.1,0,2,.9,2,2v2c0,1.1-.9,2-2,2s-2-.9-2-2v-2c0-1.1.9-2,2-2Z"/>
            <path class="cls-4" d="M124.67,90.6c1.1,0,2,.9,2,2v2c0,1.1-.9,2-2,2s-2-.9-2-2v-2c0-1.1.9-2,2-2Z"/>
            <path class="cls-4" d="M124.67,99.31c1.1,0,2,.9,2,2v2c0,.28-.06.54-.16.78-.11.25-.27.48-.46.67-.38.37-.89.58-1.44.55-.55-.03-1.04-.27-1.38-.62-.17-.18-.3-.37-.4-.6-.1-.24-.16-.5-.16-.78v-2c0-1.1.9-2,2-2Z"/>
            <path class="cls-4" d="M124.34,108.01c.55.08,1.01.39,1.3.83.14.22.27.48.31.75.04.27.02.56-.05.85l-.27,1.05c-.09.35-.18.7-.31,1.03-.42,1.14-1.58,1.7-2.59,1.25-1.01-.45-1.56-1.57-1.21-2.51.12-.28.19-.58.27-.88l.23-.89c.06-.25.18-.47.33-.66.15-.19.31-.37.52-.5.41-.27.93-.41,1.48-.33Z"/>
            <path class="cls-4" d="M121.51,116.2c.97.53,1.25,1.79.62,2.83l-1.29,1.73c-.34.49-.92.72-1.43.77-.53.04-1.05-.13-1.45-.51h0c-.4-.38-.62-.88-.66-1.38-.05-.5.13-.95.41-1.38l1.1-1.47c.52-.86,1.73-1.12,2.7-.59Z"/>
            <path class="cls-4" d="M116,122.9h0c.36.41.53.96.45,1.48-.08.51-.37,1.01-.85,1.37-.29.21-.57.45-.88.63l-.92.56c-.52.3-1.08.42-1.59.26-.52-.15-.95-.5-1.19-.99h0c-.25-.49-.27-1.04-.14-1.5.14-.46.41-.92.84-1.18l.79-.48c.26-.15.5-.36.74-.54.41-.3.91-.4,1.41-.32.5.07.97.29,1.34.71Z"/>
            <path class="cls-4" d="M93.34,137.16c-.46,0-.93-.16-1.3-.49-.84-.72-.93-1.98-.21-2.82,3.89-4.52,9.28-7.41,15.16-8.16,1.09-.13,2.1.64,2.24,1.73.14,1.1-.64,2.1-1.73,2.24-4.9.62-9.38,3.03-12.63,6.8-.4.46-.95.69-1.52.69Z"/>
            <path class="cls-4" d="M106.67,137.16c-.56,0-1.12-.24-1.52-.69-3.25-3.77-7.73-6.18-12.63-6.8-1.1-.14-1.87-1.14-1.73-2.24.14-1.1,1.14-1.86,2.24-1.73,5.88.74,11.26,3.64,15.16,8.16.72.84.63,2.1-.21,2.82-.38.33-.84.49-1.31.49Z"/>
          </g>
          <path class="cls-6" d="M116.67,79.17v25c0,9.2-7.46,16.67-16.67,16.67s-16.67-7.46-16.67-16.67v-25h33.33M116.67,77.83h-33.33c-.74,0-1.33.6-1.33,1.33v25c0,9.93,8.07,18,18,18s18-8.07,18-18v-25c0-.74-.6-1.33-1.33-1.33h0Z"/>
        </g>
      </g>
      <g>
        <path class="cls-5" d="M0,20v160c0,11.05,8.95,20,20,20h46.67V0H20C8.95,0,0,8.95,0,20Z"/>
        <path class="cls-7" d="M133.33,0v200h46.67c11.05,0,20-8.95,20-20V20c0-11.05-8.95-20-20-20h-46.67Z"/>
      </g>
    </g>
  </g>
</svg>