<?xml version="1.0" encoding="UTF-8"?>
<svg id="Layer_2" data-name="Layer 2" xmlns="http://www.w3.org/2000/svg" viewBox="0 0 200 200">
  <defs>
    <style>
      .cls-1 {
        fill: #213572;
      }

      .cls-1, .cls-2, .cls-3, .cls-4 {
        stroke-width: 0px;
      }

      .cls-2 {
        fill: #009b43;
      }

      .cls-3 {
        fill: #f0f0f0;
      }

      .cls-4 {
        fill: #ffcf44;
      }
    </style>
  </defs>
  <g id="square-rounded">
    <g>
      <path class="cls-2" d="M62.25,130.68c1.5-1.5,3.54-2.34,5.66-2.34h132.09v-56.67H67.91c-2.12,0-4.16-.84-5.66-2.34L2.78,9.86C1.03,12.83,0,16.29,0,20v160.01c0,3.71,1.03,7.16,2.78,10.14l59.47-59.47Z"/>
      <polygon class="cls-4" points="20 200 180 200 180 200 20 200 20 200"/>
      <path class="cls-4" d="M72.05,138.33c-2.12,0-4.16.84-5.66,2.34l-56.54,56.54c2.98,1.76,6.43,2.78,10.14,2.78h160.01c11.04,0,19.99-8.95,20-19.99v-41.67h-127.95Z"/>
      <path class="cls-1" d="M66.39,59.32c1.5,1.5,3.54,2.34,5.66,2.34h127.95V20c0-11.05-8.95-20-20-20H20c-3.71,0-7.17,1.03-10.14,2.78l56.54,56.54Z"/>
      <g>
        <path class="cls-3" d="M72.05,61.67c-2.12,0-4.16-.84-5.66-2.34L9.86,2.78c-1.46.86-2.81,1.88-4,3.07s-2.21,2.54-3.07,4l59.47,59.47c1.5,1.5,3.54,2.34,5.66,2.34h132.09v-10h-127.95Z"/>
        <path class="cls-3" d="M62.25,130.68L2.78,190.14c.86,1.46,1.88,2.81,3.07,4,1.19,1.19,2.54,2.21,4,3.07l56.54-56.54c1.5-1.5,3.54-2.34,5.66-2.34h127.95v-10H67.91c-2.12,0-4.16.84-5.66,2.34Z"/>
      </g>
      <g>
        <path class="cls-3" d="M39.19,77.83l-19.34,19.34c-1.56,1.56-1.56,4.09,0,5.66l19.34,19.34c1.56,1.56,4.09,1.56,5.66,0l19.34-19.34c1.56-1.56,1.56-4.09,0-5.66l-19.34-19.34c-1.56-1.56-4.09-1.56-5.66,0Z"/>
        <rect class="cls-2" x="34.34" y="92.32" width="15.36" height="15.36" rx="2" ry="2" transform="translate(-58.4 59.01) rotate(-45)"/>
      </g>
    </g>
  </g>
</svg>