<?xml version="1.0" encoding="UTF-8"?>
<svg id="Layer_2" data-name="Layer 2" xmlns="http://www.w3.org/2000/svg" viewBox="0 0 200 200">
  <defs>
    <style>
      .cls-1 {
        fill: #213572;
      }

      .cls-1, .cls-2, .cls-3, .cls-4, .cls-5 {
        stroke-width: 0px;
      }

      .cls-2 {
        fill: #f0f0f0;
      }

      .cls-3 {
        fill: none;
      }

      .cls-4 {
        fill: #009b43;
      }

      .cls-5 {
        fill: #ffcf44;
      }
    </style>
  </defs>
  <g id="square-rounded">
    <g>
      <g>
        <rect class="cls-5" y="100" width="200" height="20"/>
        <rect class="cls-5" x="100" y="60" width="100" height="20"/>
        <rect class="cls-5" x="100" y="20" width="100" height="20"/>
        <g>
          <rect class="cls-4" y="120" width="200" height="20"/>
          <rect class="cls-4" x="100" y="80" width="100" height="20"/>
          <rect class="cls-4" x="100" y="40" width="100" height="20"/>
          <rect class="cls-4" y="160" width="200" height="20"/>
          <path class="cls-4" d="M100,20h100c0-11.05-8.95-20-20-20h-80v20Z"/>
        </g>
        <rect class="cls-5" y="140" width="200" height="20"/>
        <path class="cls-5" d="M19.99,200h160.02c11.04,0,19.99-8.95,19.99-19.99h0s-200-.01-200-.01h0c0,11.05,8.95,20,19.99,20Z"/>
      </g>
      <path class="cls-1" d="M19.99,0h80.01v100H0V19.99C0,8.96,8.96,0,19.99,0Z"/>
      <g>
        <path class="cls-2" d="M50.64,37.94l2.36,7.26c.09.29.36.48.66.48h7.57c.67,0,.95.86.41,1.25l-6.13,4.45c-.24.18-.34.49-.25.77l2.34,7.2c.21.64-.52,1.17-1.07.77l-6.13-4.45c-.24-.18-.57-.18-.81,0l-6.13,4.45c-.54.39-1.27-.14-1.07-.77l2.34-7.2c.09-.29,0-.6-.25-.77l-6.13-4.45c-.54-.39-.26-1.25.41-1.25h7.57c.3,0,.57-.19.66-.48l2.36-7.26c.2-.62,1.08-.62,1.28,0"/>
        <circle class="cls-3" cx="50" cy="50.02" r="12.5"/>
      </g>
      <g>
        <path class="cls-2" d="M70.64,17.94l2.36,7.26c.09.29.36.48.66.48h7.57c.67,0,.95.86.41,1.25l-6.13,4.45c-.24.18-.34.49-.25.77l2.34,7.2c.21.64-.52,1.17-1.07.77l-6.13-4.45c-.24-.18-.57-.18-.81,0l-6.13,4.45c-.54.39-1.27-.14-1.07-.77l2.34-7.2c.09-.29,0-.6-.25-.77l-6.13-4.45c-.54-.39-.26-1.25.41-1.25h7.57c.3,0,.57-.19.66-.48l2.36-7.26c.2-.62,1.08-.62,1.28,0"/>
        <circle class="cls-3" cx="70" cy="30.02" r="12.5"/>
      </g>
      <g>
        <path class="cls-2" d="M30.64,17.94l2.36,7.26c.09.29.36.48.66.48h7.57c.67,0,.95.86.41,1.25l-6.13,4.45c-.24.18-.34.49-.25.77l2.34,7.2c.21.64-.52,1.17-1.07.77l-6.13-4.45c-.24-.18-.57-.18-.81,0l-6.13,4.45c-.54.39-1.27-.14-1.07-.77l2.34-7.2c.09-.29,0-.6-.25-.77l-6.13-4.45c-.54-.39-.26-1.25.41-1.25h7.57c.3,0,.57-.19.66-.48l2.36-7.26c.2-.62,1.08-.62,1.28,0"/>
        <circle class="cls-3" cx="30" cy="30.02" r="12.5"/>
      </g>
      <g>
        <path class="cls-2" d="M70.64,57.94l2.36,7.26c.09.29.36.48.66.48h7.57c.67,0,.95.86.41,1.25l-6.13,4.45c-.24.18-.34.49-.25.77l2.34,7.2c.21.64-.52,1.17-1.07.77l-6.13-4.45c-.24-.18-.57-.18-.81,0l-6.13,4.45c-.54.39-1.27-.14-1.07-.77l2.34-7.2c.09-.29,0-.6-.25-.77l-6.13-4.45c-.54-.39-.26-1.25.41-1.25h7.57c.3,0,.57-.19.66-.48l2.36-7.26c.2-.62,1.08-.62,1.28,0"/>
        <circle class="cls-3" cx="70" cy="70.02" r="12.5"/>
      </g>
      <g>
        <path class="cls-2" d="M30.64,57.94l2.36,7.26c.09.29.36.48.66.48h7.57c.67,0,.95.86.41,1.25l-6.13,4.45c-.24.18-.34.49-.25.77l2.34,7.2c.21.64-.52,1.17-1.07.77l-6.13-4.45c-.24-.18-.57-.18-.81,0l-6.13,4.45c-.54.39-1.27-.14-1.07-.77l2.34-7.2c.09-.29,0-.6-.25-.77l-6.13-4.45c-.54-.39-.26-1.25.41-1.25h7.57c.3,0,.57-.19.66-.48l2.36-7.26c.2-.62,1.08-.62,1.28,0"/>
        <circle class="cls-3" cx="30" cy="70.02" r="12.5"/>
      </g>
    </g>
  </g>
</svg>