<?xml version="1.0" encoding="UTF-8"?>
<svg id="Layer_2" data-name="Layer 2" xmlns="http://www.w3.org/2000/svg" viewBox="0 0 200 200">
  <defs>
    <style>
      .cls-1 {
        fill: #213572;
      }

      .cls-1, .cls-2, .cls-3, .cls-4, .cls-5 {
        stroke-width: 0px;
      }

      .cls-2 {
        fill: #f0f0f0;
      }

      .cls-3 {
        fill: none;
      }

      .cls-4 {
        fill: #d9251d;
      }

      .cls-5 {
        fill: #1d1d1b;
      }
    </style>
  </defs>
  <g id="square-rounded">
    <g>
      <g>
        <rect class="cls-5" x="100" y="44.51" width="100" height="22.22"/>
        <rect class="cls-2" x="100" y="22.22" width="100" height="22.22"/>
        <rect class="cls-2" x="100" y="66.73" width="100" height="22.22"/>
        <rect class="cls-2" x="0" y="111.11" width="200" height="22.22"/>
        <rect class="cls-2" x="0" y="155.56" width="200" height="22.22"/>
        <path class="cls-4" d="M100,88.89v6.11c0,2.76-2.24,5-5,5H0v11.11h200v-22.22h-100Z"/>
        <rect class="cls-5" y="133.33" width="200" height="22.22"/>
        <path class="cls-4" d="M20,200h160c11.05,0,20-8.95,20-20v-2.22H0v2.22c0,11.05,8.95,20,20,20Z"/>
        <path class="cls-4" d="M100,22.22h100v-2.22c0-11.05-8.95-20-20-20h-80v22.22Z"/>
      </g>
      <path class="cls-1" d="M20,0h80v95c0,2.76-2.24,5-5,5H0V20C0,8.96,8.96,0,20,0Z"/>
      <g>
        <path class="cls-2" d="M51.53,21.06l5.66,17.43c.22.68.86,1.15,1.58,1.15h18.18c1.61,0,2.28,2.06.98,3.01l-14.71,10.68c-.58.42-.83,1.17-.6,1.86l5.62,17.29c.5,1.53-1.26,2.8-2.56,1.86l-14.71-10.69c-.58-.42-1.37-.42-1.95,0l-14.71,10.68c-1.3.95-3.06-.33-2.56-1.86l5.62-17.29c.22-.68-.02-1.44-.6-1.86l-14.71-10.69c-1.3-.95-.63-3.01.98-3.01h18.18c.72,0,1.36-.46,1.58-1.15l5.66-17.43c.48-1.49,2.59-1.49,3.07,0"/>
        <circle class="cls-3" cx="50" cy="50.06" r="30"/>
      </g>
    </g>
  </g>
</svg>