<?xml version="1.0" encoding="UTF-8"?>
<svg id="Layer_2" data-name="Layer 2" xmlns="http://www.w3.org/2000/svg" viewBox="0 0 200 200">
  <defs>
    <style>
      .cls-1 {
        fill: #213572;
      }

      .cls-1, .cls-2, .cls-3 {
        stroke-width: 0px;
      }

      .cls-2 {
        fill: #f0f0f0;
      }

      .cls-3 {
        fill: #009b43;
      }
    </style>
  </defs>
  <g id="square-rounded">
    <g>
      <g>
        <path class="cls-3" d="M0,180c0,11.05,8.95,20,20,20h109.29L0,70.71v109.29Z"/>
        <path class="cls-2" d="M70.71,0H20C8.95,0,0,8.95,0,20v50.71l129.29,129.29h50.71c11.05,0,20-8.95,20-20v-50.71L70.71,0Z"/>
        <path class="cls-3" d="M200,20c0-11.05-8.95-20-20-20h-109.29l129.29,129.29V20Z"/>
      </g>
      <path class="cls-1" d="M71.92,92.44c-3.63,0-7.33.19-11.02.56-.03,0-.07,0-.1,0-.06,0-.11-.03-.17-.04-.41,2.28-.63,4.63-.63,7.03,0,22.09,17.91,40,40,40,17.08,0,31.64-10.7,37.38-25.77-.09-.03-.18-.07-.26-.13-18.95-14.17-41.5-21.66-65.21-21.66Z"/>
      <path class="cls-1" d="M139.96,101.46c.02-.48.04-.97.04-1.46,0-22.09-17.91-40-40-40-15.07,0-28.19,8.34-35.01,20.65,2.44-.14,4.72-.21,6.93-.21,24.4,0,47.92,7.27,68.05,21.02Z"/>
    </g>
  </g>
</svg>