<?xml version="1.0" encoding="UTF-8"?>
<svg id="Layer_2" data-name="Layer 2" xmlns="http://www.w3.org/2000/svg" viewBox="0 0 200 200">
  <defs>
    <style>
      .cls-1 {
        fill: #213572;
      }

      .cls-1, .cls-2, .cls-3, .cls-4, .cls-5 {
        stroke-width: 0px;
      }

      .cls-2 {
        fill: #f0f0f0;
      }

      .cls-3 {
        fill: none;
      }

      .cls-4 {
        fill: #009b43;
      }

      .cls-5 {
        fill: #ffcf44;
      }
    </style>
  </defs>
  <g id="square-rounded">
    <g>
      <path class="cls-5" d="M20,200h160c11.05,0,20-8.95,20-20v-30H0v30c0,11.05,8.95,20,20,20Z"/>
      <rect class="cls-4" y="100" width="200" height="50"/>
      <rect class="cls-5" x="100" y="50.02" width="100" height="50"/>
      <path class="cls-4" d="M100,50.02h100v-30C200,8.98,191.05.02,180,.02h-80v50Z"/>
      <path class="cls-1" d="M20,0h80v100H0V20C0,8.96,8.96,0,20,0Z"/>
      <g>
        <path class="cls-2" d="M51.02,30.7l3.78,11.62c.15.46.57.77,1.05.77h12.12c1.07,0,1.52,1.37.65,2l-9.8,7.12c-.39.28-.55.78-.4,1.24l3.75,11.53c.33,1.02-.84,1.87-1.71,1.24l-9.8-7.12c-.39-.28-.91-.28-1.3,0l-9.8,7.12c-.87.63-2.04-.22-1.71-1.24l3.74-11.52c.15-.46-.01-.96-.4-1.24l-9.8-7.12c-.87-.63-.42-2,.65-2h12.12c.48,0,.91-.31,1.05-.77l3.78-11.62c.32-.99,1.72-.99,2.05,0"/>
        <circle class="cls-3" cx="50" cy="50.04" r="20"/>
      </g>
      <g>
        <path class="cls-2" d="M78.01,12.85l1.89,5.81c.07.23.29.38.53.38h6.06c.54,0,.76.69.33,1l-4.9,3.56c-.19.14-.28.39-.2.62l1.87,5.76c.17.51-.42.93-.85.62l-4.9-3.56c-.19-.14-.46-.14-.65,0l-4.9,3.56c-.43.32-1.02-.11-.85-.62l1.87-5.76c.07-.23,0-.48-.2-.62l-4.9-3.56c-.43-.32-.21-1,.33-1h6.06c.24,0,.45-.15.53-.38l1.89-5.81c.16-.5.86-.5,1.02,0"/>
        <circle class="cls-3" cx="77.5" cy="22.51" r="10"/>
      </g>
      <g>
        <path class="cls-2" d="M23.01,12.85l1.89,5.81c.07.23.29.38.53.38h6.06c.54,0,.76.69.33,1l-4.9,3.56c-.19.14-.28.39-.2.62l1.87,5.76c.17.51-.42.93-.85.62l-4.9-3.56c-.19-.14-.46-.14-.65,0l-4.9,3.56c-.43.32-1.02-.11-.85-.62l1.87-5.76c.07-.23,0-.48-.2-.62l-4.9-3.56c-.43-.32-.21-1,.33-1h6.06c.24,0,.45-.15.53-.38l1.89-5.81c.16-.5.86-.5,1.02,0"/>
        <circle class="cls-3" cx="22.5" cy="22.51" r="10"/>
      </g>
      <g>
        <path class="cls-2" d="M78.01,67.86l1.89,5.81c.07.23.29.38.53.38h6.06c.54,0,.76.69.33,1l-4.9,3.56c-.19.14-.28.39-.2.62l1.87,5.76c.17.51-.42.93-.85.62l-4.9-3.56c-.19-.14-.46-.14-.65,0l-4.9,3.56c-.43.32-1.02-.11-.85-.62l1.87-5.76c.07-.23,0-.48-.2-.62l-4.9-3.56c-.43-.32-.21-1,.33-1h6.06c.24,0,.45-.15.53-.38l1.89-5.81c.16-.5.86-.5,1.02,0"/>
        <circle class="cls-3" cx="77.5" cy="77.52" r="10"/>
      </g>
      <g>
        <path class="cls-2" d="M23.01,67.86l1.89,5.81c.07.23.29.38.53.38h6.06c.54,0,.76.69.33,1l-4.9,3.56c-.19.14-.28.39-.2.62l1.87,5.76c.17.51-.42.93-.85.62l-4.9-3.56c-.19-.14-.46-.14-.65,0l-4.9,3.56c-.43.32-1.02-.11-.85-.62l1.87-5.76c.07-.23,0-.48-.2-.62l-4.9-3.56c-.43-.32-.21-1,.33-1h6.06c.24,0,.45-.15.53-.38l1.89-5.81c.16-.5.86-.5,1.02,0"/>
        <circle class="cls-3" cx="22.5" cy="77.52" r="10"/>
      </g>
    </g>
  </g>
</svg>