<?xml version="1.0" encoding="UTF-8"?>
<svg id="Layer_2" data-name="Layer 2" xmlns="http://www.w3.org/2000/svg" viewBox="0 0 200 200">
  <defs>
    <style>
      .cls-1 {
        fill: #213572;
      }

      .cls-1, .cls-2, .cls-3, .cls-4, .cls-5, .cls-6 {
        stroke-width: 0px;
      }

      .cls-2 {
        fill: #f0f0f0;
      }

      .cls-3 {
        fill: none;
      }

      .cls-4 {
        fill: #d9251d;
      }

      .cls-5 {
        fill: #1d1d1b;
      }

      .cls-6 {
        fill: #ffcf44;
      }
    </style>
  </defs>
  <g id="square-rounded">
    <g>
      <g>
        <rect class="cls-2" y="100" width="200" height="20"/>
        <rect class="cls-2" x="120" y="60" width="80" height="20"/>
        <rect class="cls-2" x="120" y="20" width="80" height="20"/>
        <rect class="cls-2" y="140" width="200" height="20"/>
        <path class="cls-2" d="M19.99,200h160.02c11.04,0,19.99-8.95,19.99-19.99h0s-200-.01-200-.01h0c0,11.05,8.95,20,19.99,20Z"/>
        <path class="cls-5" d="M120,20h80c0-11.05-8.95-20-19.99-20h-60.01v20Z"/>
        <rect class="cls-5" x="120" y="40" width="80" height="20"/>
        <rect class="cls-5" x="120" y="80" width="80" height="20"/>
        <rect class="cls-5" x="0" y="120" width="200" height="20"/>
        <rect class="cls-5" x="0" y="160" width="200" height="20"/>
      </g>
      <path class="cls-4" d="M20,0h100v100H0V20C0,8.96,8.96,0,20,0Z"/>
      <circle class="cls-2" cx="60" cy="50" r="39"/>
      <g>
        <path class="cls-6" d="M16.51,6.37l1.89,5.81c.07.23.29.38.53.38h6.06c.54,0,.76.69.33,1l-4.9,3.56c-.19.14-.28.39-.2.62l1.87,5.76c.17.51-.42.93-.85.62l-4.9-3.56c-.19-.14-.46-.14-.65,0l-4.9,3.56c-.43.32-1.02-.11-.85-.62l1.87-5.76c.07-.23,0-.48-.2-.62l-4.9-3.56c-.43-.32-.21-1,.33-1h6.06c.24,0,.45-.15.53-.38l1.89-5.81c.16-.5.86-.5,1.02,0"/>
        <circle class="cls-3" cx="16" cy="16.04" r="10"/>
      </g>
      <g>
        <path class="cls-6" d="M104.51,6.37l1.89,5.81c.07.23.29.38.53.38h6.06c.54,0,.76.69.33,1l-4.9,3.56c-.19.14-.28.39-.2.62l1.87,5.76c.17.51-.42.93-.85.62l-4.9-3.56c-.19-.14-.46-.14-.65,0l-4.9,3.56c-.43.32-1.02-.11-.85-.62l1.87-5.76c.07-.23,0-.48-.2-.62l-4.9-3.56c-.43-.32-.21-1,.33-1h6.06c.24,0,.45-.15.53-.38l1.89-5.81c.16-.5.86-.5,1.02,0"/>
        <circle class="cls-3" cx="104" cy="16.04" r="10"/>
      </g>
      <g>
        <path class="cls-6" d="M16.51,74.33l1.89,5.81c.07.23.29.38.53.38h6.06c.54,0,.76.69.33,1l-4.9,3.56c-.19.14-.28.39-.2.62l1.87,5.76c.17.51-.42.93-.85.62l-4.9-3.56c-.19-.14-.46-.14-.65,0l-4.9,3.56c-.43.32-1.02-.11-.85-.62l1.87-5.76c.07-.23,0-.48-.2-.62l-4.9-3.56c-.43-.32-.21-1,.33-1h6.06c.24,0,.45-.15.53-.38l1.89-5.81c.16-.5.86-.5,1.02,0"/>
        <circle class="cls-3" cx="16" cy="84" r="10"/>
      </g>
      <g>
        <path class="cls-6" d="M104.51,74.33l1.89,5.81c.07.23.29.38.53.38h6.06c.54,0,.76.69.33,1l-4.9,3.56c-.19.14-.28.39-.2.62l1.87,5.76c.17.51-.42.93-.85.62l-4.9-3.56c-.19-.14-.46-.14-.65,0l-4.9,3.56c-.43.32-1.02-.11-.85-.62l1.87-5.76c.07-.23,0-.48-.2-.62l-4.9-3.56c-.43-.32-.21-1,.33-1h6.06c.24,0,.45-.15.53-.38l1.89-5.81c.16-.5.86-.5,1.02,0"/>
        <circle class="cls-3" cx="104" cy="84" r="10"/>
      </g>
      <path class="cls-1" d="M66.17,72.36l-4.41,5.04c-.5.58-1.37.65-1.97.17l-3.41-2.74c-.64-.52-.72-1.46-.16-2.07l2.8-3.1c.25-.28.39-.65.37-1.03l-.15-2.98c-.02-.47-.28-.91-.69-1.15l-3.99-2.41c-.43-.26-.69-.72-.69-1.22v-6.28c0-.49-.26-.95-.68-1.21l-9.2-5.71c-.42-.26-.68-.72-.68-1.21h0c0-1.06-1.12-1.75-2.07-1.28l-2.25,1.13c-.36.18-.76.11-1.15.05-4.19-.53-5.66-3.71-5.66-3.71-.26-.39-.31-.87-.14-1.31l1.36-3.52c.16-.42.52-.74.95-.86l1.55-.43c.59-.16,1.22-.93,1.26-1.54l.13-4.66c.02-.33.16-.65.39-.89l1.33-1.39c.45-.47,1.15-.58,1.72-.27l1.62.89c.52.29,1.16.22,1.61-.16l.9-.76c.36-.3.54-.77.5-1.23l-.22-2.14c-.08-.75.45-1.44,1.2-1.56l4.2-.67c.8-.13,1.54.43,1.64,1.24l.3,2.37c.1.77.79,1.33,1.57,1.25l5.54-.58c.33-.03.63-.18.86-.41l1.68-1.68c.66-.66,1.75-.52,2.24.27l1.58,2.62c.23.38.27.83.11,1.24l-.25.66c-.31.83.2,1.75,1.08,1.91l14.57,2.73c.18.03.36.1.52.21l5.44,3.53c.41.26.65.72.65,1.2v4.26c0,.33-.11.65-.32.91l-5.02,6.13c-.14.17-.23.36-.28.57l-1.44,5.95c-.03.11-.07.23-.12.33l-3.44,6.54c-.19.36-.52.62-.92.72l-6.56,1.63c-.42.1-.76.39-.95.78l-2.62,5.54c-.06.12-.13.23-.22.33Z"/>
    </g>
  </g>
</svg>