<?xml version="1.0" encoding="UTF-8"?>
<svg id="Layer_2" data-name="Layer 2" xmlns="http://www.w3.org/2000/svg" viewBox="0 0 200 200">
  <defs>
    <style>
      .cls-1 {
        fill: #213572;
      }

      .cls-1, .cls-2, .cls-3, .cls-4, .cls-5 {
        stroke-width: 0px;
      }

      .cls-2 {
        fill: #f0f0f0;
      }

      .cls-3 {
        fill: none;
      }

      .cls-4 {
        fill: #009b43;
      }

      .cls-5 {
        fill: #ffcf44;
      }
    </style>
  </defs>
  <g id="square-rounded">
    <g>
      <path class="cls-1" d="M19.99,0h80.01v100H0V19.99C0,8.96,8.96,0,19.99,0Z"/>
      <g>
        <path class="cls-2" d="M51.53,21.06l5.66,17.43c.22.68.86,1.15,1.58,1.15h18.18c1.61,0,2.28,2.06.98,3.01l-14.71,10.68c-.58.42-.83,1.17-.6,1.86l5.62,17.29c.5,1.53-1.26,2.8-2.56,1.86l-14.71-10.69c-.58-.42-1.37-.42-1.95,0l-14.71,10.68c-1.3.95-3.06-.33-2.56-1.86l5.62-17.29c.22-.68-.02-1.44-.6-1.86l-14.71-10.69c-1.3-.95-.63-3.01.98-3.01h18.18c.72,0,1.36-.46,1.58-1.15l5.66-17.43c.48-1.49,2.59-1.49,3.07,0"/>
        <circle class="cls-3" cx="50" cy="50.06" r="30"/>
      </g>
      <g>
        <rect class="cls-5" y="100" width="200" height="20"/>
        <rect class="cls-5" x="100" y="60" width="100" height="20"/>
        <rect class="cls-5" x="100" y="20" width="100" height="20"/>
        <g>
          <rect class="cls-4" y="120" width="200" height="20"/>
          <rect class="cls-4" x="100" y="80" width="100" height="20"/>
          <rect class="cls-4" x="100" y="40" width="100" height="20"/>
          <rect class="cls-4" y="160" width="200" height="20"/>
          <path class="cls-4" d="M100,20h100c0-11.05-8.95-20-20-20h-80v20Z"/>
        </g>
        <rect class="cls-5" y="140" width="200" height="20"/>
        <path class="cls-5" d="M19.99,200h160.02c11.04,0,19.99-8.95,19.99-19.99h0s-200-.01-200-.01h0c0,11.05,8.95,20,19.99,20Z"/>
      </g>
    </g>
  </g>
</svg>