<?xml version="1.0" encoding="UTF-8"?>
<svg id="Layer_2" data-name="Layer 2" xmlns="http://www.w3.org/2000/svg" viewBox="0 0 200 200">
  <defs>
    <style>
      .cls-1 {
        fill: #f0f0f0;
      }

      .cls-1, .cls-2, .cls-3, .cls-4, .cls-5, .cls-6 {
        stroke-width: 0px;
      }

      .cls-2 {
        fill: none;
      }

      .cls-3 {
        fill: #f8c300;
      }

      .cls-4 {
        fill: #009b43;
      }

      .cls-5 {
        fill: #d9251d;
      }

      .cls-6 {
        fill: #01a2ce;
      }
    </style>
  </defs>
  <g id="square-rounded">
    <g>
      <g>
        <path class="cls-6" d="M20,0h109.29S0,129.29,0,129.29V20C0,8.95,8.95,0,20,0Z"/>
        <path class="cls-4" d="M200,180c0,11.05-8.95,20-20,20h-109.29S200,70.71,200,70.71v109.29Z"/>
        <path class="cls-1" d="M180,0c11.05,0,20,8.95,20,20v50.71S70.71,200,70.71,200H20c-11.05,0-20-8.95-20-20v-50.71S129.29,0,129.29,0h50.71Z"/>
      </g>
      <rect class="cls-5" x="0" y="162.54" width="200" height="15"/>
      <g>
        <path class="cls-3" d="M103.58,32.47l13.21,40.67c.52,1.6,2.01,2.68,3.69,2.68h42.42c3.76,0,5.32,4.81,2.28,7.02l-34.32,24.93c-1.36.99-1.93,2.74-1.41,4.34l13.11,40.34c1.16,3.57-2.93,6.54-5.97,4.34l-34.32-24.93c-1.36-.99-3.2-.99-4.56,0l-34.31,24.93c-3.04,2.21-7.13-.76-5.97-4.34l13.11-40.34c.52-1.6-.05-3.35-1.41-4.34l-34.32-24.93c-3.04-2.21-1.48-7.02,2.28-7.02h42.42c1.68,0,3.17-1.08,3.69-2.68l13.22-40.67c1.13-3.47,6.03-3.47,7.16,0"/>
        <circle class="cls-2" cx="100" cy="100.13" r="70"/>
      </g>
    </g>
  </g>
</svg>