<?xml version="1.0" encoding="UTF-8"?>
<svg id="Layer_2" data-name="Layer 2" xmlns="http://www.w3.org/2000/svg" viewBox="0 0 200 200">
  <defs>
    <style>
      .cls-1 {
        fill: #213572;
      }

      .cls-1, .cls-2, .cls-3, .cls-4 {
        stroke-width: 0px;
      }

      .cls-2 {
        fill: #f0f0f0;
      }

      .cls-3 {
        fill: #009b43;
      }

      .cls-4 {
        fill: #ffcf44;
      }
    </style>
  </defs>
  <g id="square-rounded">
    <g>
      <path class="cls-1" d="M0,20v80h200V20c0-11.05-8.95-20-20-20H20C8.95,0,0,8.95,0,20Z"/>
      <polygon class="cls-4" points="0 170 100 100 0 100 0 170"/>
      <polygon class="cls-4" points="200 170 200 100 100 100 200 170"/>
      <path class="cls-3" d="M200,180v-10l-98.28-68.8c-1.03-.72-2.41-.72-3.44,0L0,170v10c0,11.05,8.95,20,20,20h160c11.05,0,20-8.95,20-20Z"/>
      <path class="cls-2" d="M138.85,64.52l-25.06-.44c-1.26-.02-2.37-.83-2.78-2.02l-8.16-23.7c-.93-2.7-4.74-2.7-5.67,0l-8.16,23.7c-.41,1.19-1.52,2-2.78,2.02l-25.06.44c-2.85.05-4.03,3.68-1.75,5.4l20.02,15.09c1.01.76,1.43,2.07,1.06,3.27l-7.33,23.97c-.83,2.73,2.25,4.97,4.59,3.33l20.53-14.37c1.03-.72,2.41-.72,3.44,0l20.53,14.37c2.34,1.64,5.42-.61,4.59-3.33l-7.33-23.97c-.37-1.21.06-2.51,1.06-3.27l20.02-15.09c2.28-1.72,1.1-5.35-1.75-5.4Z"/>
    </g>
  </g>
</svg>