<?xml version="1.0" encoding="UTF-8"?>
<svg id="Layer_2" data-name="Layer 2" xmlns="http://www.w3.org/2000/svg" viewBox="0 0 200 200">
  <defs>
    <style>
      .cls-1 {
        fill: #b89b53;
      }

      .cls-1, .cls-2, .cls-3, .cls-4, .cls-5, .cls-6, .cls-7, .cls-8, .cls-9 {
        stroke-width: 0px;
      }

      .cls-2 {
        fill: #54a7aa;
      }

      .cls-3 {
        fill: #f0f0f0;
      }

      .cls-4 {
        fill: none;
      }

      .cls-5 {
        fill: #009b43;
      }

      .cls-6 {
        fill: #00a2ce;
      }

      .cls-7 {
        fill: #ffcf44;
      }

      .cls-8 {
        fill: #89cbc9;
      }

      .cls-9 {
        fill: #f0f0f0;
      }
    </style>
  </defs>
  <g id="Layer_18" data-name="Layer 18">
    <g>
      <rect class="cls-5" width="200" height="200" rx="20" ry="20"/>
      <g>
        <path class="cls-7" d="M98.89,155.89L11.01,101.81c-1.35-.83-1.35-2.79,0-3.61l87.88-54.08c.68-.42,1.54-.42,2.22,0l87.88,54.08c1.35.83,1.35,2.79,0,3.61l-87.88,54.08c-.68.42-1.54.42-2.22,0Z"/>
        <path class="cls-9" d="M135.36,100c0,19.53-15.83,35.36-35.36,35.36s-35.36-15.83-35.36-35.36,15.83-35.36,35.36-35.36,35.36,15.83,35.36,35.36"/>
        <path class="cls-5" d="M119.09,101.83l-.23-.54c-.79-1.91-1.77-4.29-1.55-6.34.2-1.82,1.28-3.38,3.3-4.78.18-.13.3-.32.34-.54s-.03-.45-.16-.62l-4.6-5.92c-.66-.85-1.61-1.43-2.67-1.59-4.55-.7-9.03-1.07-13.34-1.09-4.31.02-8.8.39-13.34,1.09-1.06.16-2.02.74-2.67,1.59l-4.6,5.92c-.13.17-.2.4-.16.62s.16.41.34.54c2.02,1.4,3.1,2.96,3.3,4.78.23,2.04-.76,4.43-1.55,6.34l-.23.54c-1.19,2.89-2.16,5.52-2.16,8.44,0,.64.09,1.28.28,1.9.52,1.7,1.74,3.3,3.73,4.89,1.92,1.53,4.17,2.79,6.14,3.84.6.33,1.21.65,1.82.97,1.57.83,3.2,1.68,4.72,2.62,1.26.78,2.82,1.83,3.71,3.1.16.21.4.34.66.34s.5-.13.66-.34c.89-1.27,2.45-2.32,3.71-3.1,1.53-.95,3.15-1.8,4.72-2.62.62-.32,1.22-.64,1.82-.97,1.97-1.05,4.22-2.31,6.14-3.84,1.99-1.59,3.22-3.19,3.73-4.89.19-.62.28-1.25.28-1.9,0-2.92-.98-5.55-2.16-8.44Z"/>
        <g>
          <path class="cls-6" d="M100,114.66c-5.56,0-10.08-5.87-10.08-13.1s4.52-13.1,10.08-13.1,10.07,5.87,10.07,13.1-4.52,13.1-10.07,13.1"/>
          <path class="cls-3" d="M100,116.07c-6.34,0-11.49-6.51-11.49-14.51s5.15-14.51,11.49-14.51,11.49,6.51,11.49,14.51-5.15,14.51-11.49,14.51ZM100,89.88c-4.78,0-8.66,5.24-8.66,11.68s3.89,11.68,8.66,11.68,8.66-5.24,8.66-11.68-3.89-11.68-8.66-11.68Z"/>
        </g>
        <path class="cls-1" d="M112.5,72.55c-.05-.68-.57-1.24-1.25-1.32-3.74-.44-7.44-.68-11.08-.7-3.64.02-7.34.26-11.08.7-.68.08-1.2.64-1.25,1.32-.02.25-.03.5-.03.73,0,2.06.64,3.47,1.13,4.26.29.46.82.72,1.37.66,3.35-.38,6.65-.59,9.86-.6,3.21.01,6.51.22,9.86.6.55.06,1.07-.19,1.37-.66.5-.79,1.13-2.19,1.13-4.26,0-.24,0-.48-.03-.73Z"/>
        <path class="cls-2" d="M91.34,101.56c0,6.44,3.89,11.68,8.66,11.68s8.66-5.24,8.66-11.68h-17.32Z"/>
        <path class="cls-8" d="M100,89.88c-4.77,0-8.66,5.24-8.66,11.68h17.32c0-6.44-3.89-11.68-8.66-11.68Z"/>
        <line class="cls-4" x1="108.66" y1="101.56" x2="106.74" y2="94.25"/>
        <g>
          <circle class="cls-3" cx="100" cy="121.84" r="1.41"/>
          <circle class="cls-3" cx="93.03" cy="118.19" r="1.41"/>
          <circle class="cls-3" cx="106.97" cy="118.19" r="1.41"/>
          <circle class="cls-3" cx="86.53" cy="112.99" r="1.41"/>
          <circle class="cls-3" cx="84.47" cy="105.3" r="1.41"/>
          <circle class="cls-3" cx="85.84" cy="97.05" r="1.41"/>
          <circle class="cls-3" cx="86.37" cy="89.37" r="1.41"/>
        </g>
      </g>
    </g>
  </g>
</svg>