<?xml version="1.0" encoding="UTF-8"?>
<svg id="Layer_2" data-name="Layer 2" xmlns="http://www.w3.org/2000/svg" viewBox="0 0 200 200">
  <defs>
    <style>
      .cls-1 {
        stroke: #c6c6c6;
        stroke-miterlimit: 10;
        stroke-width: 2px;
      }

      .cls-1, .cls-2 {
        fill: #f0f0f0;
      }

      .cls-3 {
        fill: #7b5e4c;
      }

      .cls-3, .cls-2, .cls-4, .cls-5, .cls-6, .cls-7, .cls-8 {
        stroke-width: 0px;
      }

      .cls-4 {
        fill: none;
      }

      .cls-5 {
        fill: #f8c300;
      }

      .cls-6 {
        fill: #009b43;
      }

      .cls-7 {
        fill: #d9251d;
      }

      .cls-8 {
        fill: #a6ce39;
      }
    </style>
  </defs>
  <g id="square-rounded">
    <g>
      <g>
        <path class="cls-7" d="M0,133.33h200v46.67c0,11.04-8.96,20-20,20H20c-11.04,0-20-8.96-20-20v-46.67h0Z"/>
        <path class="cls-7" d="M20,0h160c11.04,0,20,8.96,20,20v46.67H0V20C0,8.96,8.96,0,20,0Z"/>
        <rect class="cls-2" y="66.67" width="200" height="66.67"/>
      </g>
      <g>
        <path class="cls-8" d="M98.89,155.89L11.01,101.81c-1.35-.83-1.35-2.79,0-3.61l87.88-54.08c.68-.42,1.54-.42,2.22,0l87.88,54.08c1.35.83,1.35,2.79,0,3.61l-87.88,54.08c-.68.42-1.54.42-2.22,0Z"/>
        <g>
          <path class="cls-2" d="M101.45,72.71l5.34,16.43c.21.65.81,1.08,1.49,1.08h17.14c1.52,0,2.15,1.94.92,2.83l-13.87,10.07c-.55.4-.78,1.11-.57,1.75l5.3,16.3c.47,1.44-1.18,2.64-2.41,1.75l-13.87-10.07c-.55-.4-1.29-.4-1.84,0l-13.86,10.07c-1.23.89-2.88-.31-2.41-1.75l5.3-16.3c.21-.65-.02-1.35-.57-1.75l-13.87-10.07c-1.23-.89-.6-2.83.92-2.83h17.14c.68,0,1.28-.44,1.49-1.08l5.34-16.43c.46-1.4,2.44-1.4,2.89,0"/>
          <circle class="cls-4" cx="100" cy="100.05" r="28.29"/>
        </g>
        <g>
          <g>
            <path class="cls-6" d="M113.83,67.49h0c.34-.81.99-1.4,1.79-1.68.81-.31,1.72-.18,2.58.25,1.04.51,2,1.16,2.98,1.77.83.49,1.28,1.35,1.44,2.16.14.83-.06,1.67-.61,2.35-.55.69-1.32,1.1-2.1,1.24-.79.15-1.54-.04-2.23-.44-.82-.51-1.61-1.06-2.49-1.48-.71-.36-1.17-1.06-1.44-1.77-.26-.73-.26-1.6.08-2.41Z"/>
            <path class="cls-6" d="M125.18,75.23h0c.62-.62,1.45-.92,2.29-.87.86.03,1.68.47,2.29,1.21.36.45.76.87,1.08,1.35l1,1.42c.57.77.69,1.73.51,2.54-.18.82-.69,1.52-1.46,1.95h0c-.77.43-1.64.51-2.41.34-.77-.17-1.41-.62-1.9-1.25l-.83-1.19c-.27-.4-.61-.75-.91-1.13-.51-.61-.69-1.42-.66-2.18.05-.78.37-1.59.99-2.2Z"/>
            <path class="cls-6" d="M132.74,86.7h0c.81-.33,1.68-.29,2.44.08.38.18.74.45,1.03.78.27.34.49.75.63,1.21l.5,1.66.36,1.7c.1.47.11.93.03,1.36-.09.43-.28.84-.53,1.18-.49.69-1.24,1.14-2.11,1.24-.87.1-1.71-.16-2.34-.61-.32-.23-.58-.51-.8-.82-.23-.31-.4-.67-.48-1.06l-.3-1.42-.42-1.39c-.11-.38-.14-.77-.08-1.16.03-.38.13-.75.3-1.1.34-.7.95-1.33,1.77-1.66Z"/>
            <path class="cls-6" d="M135.35,100.19h0c1.76-.02,3.11,1.54,3.01,3.48-.12,1.15-.33,2.29-.5,3.43-.04.24-.09.46-.17.68-.1.21-.21.41-.34.59-.26.36-.58.67-.93.89-.71.45-1.57.59-2.41.35s-1.52-.79-1.95-1.46c-.21-.33-.36-.69-.43-1.07-.03-.19-.05-.38-.04-.57,0-.19,0-.39.02-.59.13-.96.31-1.91.42-2.86.07-1.57,1.57-2.86,3.33-2.88Z"/>
            <path class="cls-6" d="M132.62,113.66c1.65.66,2.28,2.61,1.44,4.36-.54,1.02-1.18,1.99-1.77,2.98-.24.42-.58.74-.96.97-.38.24-.79.4-1.2.47-.83.15-1.67-.05-2.36-.6h0c-.69-.55-1.11-1.32-1.25-2.09-.07-.39-.07-.78.01-1.15.08-.37.23-.72.43-1.07.49-.83,1.03-1.63,1.48-2.49.67-1.42,2.57-2.02,4.18-1.38Z"/>
          </g>
          <g>
            <path class="cls-6" d="M86.17,67.49c.34.81.33,1.68.08,2.41-.27.71-.73,1.41-1.44,1.77-.87.41-1.67.97-2.49,1.48-.69.4-1.44.59-2.23.44-.78-.14-1.55-.55-2.1-1.24h0c-.55-.69-.75-1.53-.61-2.35.15-.81.61-1.67,1.44-2.16.98-.61,1.94-1.27,2.98-1.77.86-.43,1.77-.56,2.58-.25.8.28,1.45.87,1.79,1.68Z"/>
            <path class="cls-6" d="M74.82,75.23h0c.62.62.95,1.43.99,2.2.02.76-.15,1.57-.66,2.18-.3.38-.64.73-.91,1.13l-.83,1.19c-.48.64-1.12,1.08-1.9,1.25-.77.17-1.64.08-2.41-.34h0c-.77-.43-1.28-1.13-1.46-1.95-.18-.82-.06-1.77.51-2.54l1-1.42c.33-.48.72-.9,1.08-1.35.61-.74,1.43-1.18,2.29-1.21.85-.05,1.67.25,2.29.87Z"/>
            <path class="cls-6" d="M67.26,86.7h0c.81.33,1.42.96,1.77,1.66.17.35.27.73.3,1.1.05.39.03.78-.08,1.16l-.42,1.39-.3,1.42c-.08.39-.25.75-.48,1.06-.22.32-.47.6-.8.82-.64.45-1.47.71-2.34.61h0c-.87-.1-1.62-.55-2.11-1.24-.24-.34-.44-.75-.53-1.18-.07-.43-.07-.9.03-1.36l.36-1.7.49-1.66c.14-.46.35-.87.63-1.21.3-.33.65-.6,1.03-.78.76-.37,1.63-.41,2.45-.08Z"/>
            <path class="cls-6" d="M64.66,100.19h0c1.76.02,3.26,1.31,3.33,2.88.1.96.28,1.91.42,2.86.03.2.03.4.02.59,0,.19,0,.38-.04.57-.07.37-.22.73-.43,1.07-.42.66-1.1,1.22-1.95,1.46h0c-.85.24-1.7.1-2.41-.35-.36-.23-.67-.53-.93-.89-.13-.18-.24-.38-.34-.59-.08-.21-.14-.44-.17-.68-.17-1.14-.38-2.28-.5-3.43-.1-1.94,1.25-3.5,3.01-3.48Z"/>
            <path class="cls-6" d="M67.39,113.66h0c1.61-.65,3.51-.04,4.18,1.38.45.85.99,1.66,1.48,2.49.19.35.34.71.43,1.07.08.37.08.76.01,1.15-.14.77-.56,1.55-1.25,2.09h0c-.69.55-1.53.75-2.36.6-.41-.07-.82-.23-1.2-.47-.38-.23-.72-.55-.96-.97-.59-.99-1.23-1.96-1.77-2.98-.85-1.75-.21-3.7,1.44-4.36Z"/>
          </g>
        </g>
        <path class="cls-2" d="M101.45,72.71l5.34,16.43c.21.65.81,1.08,1.49,1.08h17.14c1.52,0,2.15,1.94.92,2.83l-13.87,10.07c-.55.4-.78,1.11-.57,1.75l5.3,16.3c.47,1.44-1.18,2.64-2.41,1.75l-13.87-10.07c-.55-.4-1.29-.4-1.84,0l-13.86,10.07c-1.23.89-2.88-.31-2.41-1.75l5.3-16.3c.21-.65-.02-1.35-.57-1.75l-13.87-10.07c-1.23-.89-.6-2.83.92-2.83h17.14c.68,0,1.28-.44,1.49-1.08l5.34-16.43c.46-1.4,2.44-1.4,2.89,0"/>
        <path class="cls-7" d="M78.41,138.12l-2.44-3.88c-.71-1.13-.31-2.63.88-3.24,6.42-3.33,26.05-11.52,46.4-.02,1.14.64,1.5,2.11.81,3.22l-2.44,3.87c-.65,1.03-1.99,1.36-3.06.77-16.17-8.99-31.9-2.57-37.17.11-1.06.54-2.35.19-2.98-.82Z"/>
        <g>
          <path class="cls-3" d="M101.86,82.55h-3.71c-.15,0-.28.11-.31.26l-1.31,7.85c-.03.19.12.36.31.36h6.33c.19,0,.34-.17.31-.36l-1.31-7.85c-.03-.15-.16-.26-.31-.26Z"/>
          <path class="cls-3" d="M97.69,82.55h.55v3.54h-2.99c-.3,0-.55-.24-.55-.55h0c0-1.65,1.34-2.99,2.99-2.99Z"/>
          <path class="cls-3" d="M104.76,82.55h.55v3.54h-2.99c-.3,0-.55-.24-.55-.55h0c0-1.65,1.34-2.99,2.99-2.99Z" transform="translate(207.07 168.64) rotate(180)"/>
        </g>
        <path class="cls-3" d="M125.98,83.97h-16.11c-1.01,0-1.89.62-2.29,1.54-1.28,2.92-4.19,4.96-7.58,4.96s-6.3-2.04-7.58-4.96c-.4-.92-1.28-1.54-2.29-1.54h-8.24l-7.31-.1c-1.52,0-2.15,1.94-.92,2.83l8.19,5.95c3.69,2.68,8.12,4.12,12.68,4.12h-.14l.59,4.64c.07.55.53.96,1.08.96h1.66c.5,0,.94-.34,1.06-.83l.79-3.13c.11-.43.72-.43.83,0l.79,3.13c.12.49.56.83,1.06.83h1.66c.55,0,1.02-.41,1.08-.96l.59-4.64h-.14c4.56,0,8.99-1.44,12.68-4.12l8.2-5.95c1.06-.77.73-2.32-.35-2.73Z"/>
        <path class="cls-5" d="M91.27,112.75c-.56,0-1.09-.33-1.31-.88-.29-.72.05-1.55.78-1.84l17.47-7.11c.72-.3,1.55.05,1.84.78s-.05,1.55-.78,1.84l-17.47,7.11c-.17.07-.36.1-.53.1Z"/>
        <path class="cls-5" d="M108.74,112.75c-.18,0-.36-.03-.53-.1l-17.47-7.11c-.72-.29-1.07-1.12-.78-1.84.29-.72,1.12-1.07,1.84-.78l17.47,7.11c.72.29,1.07,1.12.78,1.84-.22.55-.75.88-1.31.88Z"/>
        <path class="cls-1" d="M96.61,90.26h6.79c.47,0,.85.38.85.85v3.39c0,2.34-1.9,4.24-4.24,4.24h0c-2.34,0-4.24-1.9-4.24-4.24v-3.39c0-.47.38-.85.85-.85Z"/>
        <path class="cls-7" d="M105.32,75c.72,0,1.23-.7,1.01-1.39l-2.19-6.73c-.59-1.8-2.25-3.01-4.14-3.01h-6.53c-.77,0-1.53.39-1.89,1.07-.5.93-.23,2.04.59,2.65l2.8,2.04-1.29,3.98c-.22.69.29,1.39,1.01,1.39h10.63Z"/>
      </g>
    </g>
  </g>
</svg>