<?xml version="1.0" encoding="UTF-8"?>
<svg id="Layer_2" data-name="Layer 2" xmlns="http://www.w3.org/2000/svg" viewBox="0 0 200 200">
  <defs>
    <style>
      .cls-1 {
        fill: #f0f0f0;
      }

      .cls-1, .cls-2, .cls-3 {
        stroke-width: 0px;
      }

      .cls-2 {
        fill: #d9251d;
      }

      .cls-3 {
        fill: #1d1d1b;
      }
    </style>
  </defs>
  <g id="square-rounded">
    <g>
      <g>
        <path class="cls-2" d="M180,0h-113.33v200h113.33c11.05,0,20-8.95,20-20V20c0-11.05-8.95-20-20-20Z"/>
        <path class="cls-3" d="M20,0C8.95,0,0,8.95,0,20v160c0,11.05,8.95,20,20,20h46.67V0H20Z"/>
      </g>
      <g>
        <path class="cls-1" d="M96.93,109.94c-1.58,0-2.37-.8-2.37-2.39v-14.99c0-.81.2-1.43.61-1.86.4-.43.93-.65,1.6-.65.59,0,1.04.11,1.36.33.32.22.69.59,1.11,1.1l7.95,9.93v-9c0-1.58.78-2.37,2.34-2.37.77,0,1.35.21,1.75.62s.59,1,.59,1.75v15.24c0,.7-.18,1.25-.55,1.66-.37.41-.86.62-1.48.62s-1.12-.11-1.47-.33c-.36-.22-.74-.59-1.14-1.1l-7.95-9.93v8.97c0,1.6-.78,2.39-2.34,2.39Z"/>
        <path class="cls-1" d="M118.05,109.7c-1.76,0-2.64-.87-2.64-2.61v-14.17c0-1.74.88-2.61,2.64-2.61h9.32c1.32,0,1.98.64,1.98,1.93s-.66,1.98-1.98,1.98h-7.12v3.69h6.52c1.32,0,1.98.65,1.98,1.95s-.66,1.95-1.98,1.95h-6.52v3.99h7.12c1.32,0,1.98.65,1.98,1.95s-.66,1.95-1.98,1.95h-9.32Z"/>
        <path class="cls-1" d="M142.26,110c-2.22,0-4.1-.41-5.65-1.24-1.55-.83-2.73-1.98-3.54-3.47-.81-1.49-1.21-3.22-1.21-5.2s.42-3.84,1.28-5.35c.85-1.51,2.08-2.68,3.67-3.51,1.6-.83,3.52-1.24,5.78-1.24.92,0,1.85.09,2.81.26.95.18,1.89.5,2.81.98.48.22.8.53.97.92.17.4.23.81.17,1.25s-.23.83-.48,1.17c-.26.34-.59.57-1.01.7s-.89.07-1.42-.17c-1.14-.53-2.41-.8-3.82-.8-1.85,0-3.23.5-4.14,1.49-.91.99-1.36,2.42-1.36,4.29s.46,3.28,1.38,4.24c.92.95,2.27,1.43,4.07,1.43.84,0,1.79-.13,2.83-.39v-3.05h-1.93c-1.3,0-1.95-.6-1.95-1.79s.65-1.76,1.95-1.76h4.07c1.32,0,1.98.66,1.98,1.98v6.08c0,.55-.12,1.02-.35,1.4-.23.39-.59.66-1.08.83-.88.29-1.82.52-2.82.69-1,.17-2,.25-3.01.25Z"/>
        <path class="cls-1" d="M162.26,110c-1.96,0-3.68-.42-5.16-1.25-1.48-.83-2.63-2-3.45-3.51-.83-1.5-1.24-3.25-1.24-5.25s.41-3.77,1.22-5.27c.82-1.49,1.97-2.65,3.45-3.48,1.48-.83,3.21-1.24,5.17-1.24s3.68.41,5.16,1.24,2.63,1.99,3.45,3.48c.83,1.5,1.24,3.25,1.24,5.27s-.41,3.75-1.24,5.25c-.82,1.5-1.98,2.67-3.45,3.51-1.48.84-3.2,1.25-5.16,1.25ZM162.26,105.76c1.43,0,2.55-.51,3.37-1.53.82-1.02,1.23-2.43,1.23-4.25s-.4-3.23-1.21-4.24c-.81-1.01-1.94-1.51-3.38-1.51s-2.58.5-3.38,1.51c-.81,1.01-1.21,2.42-1.21,4.24s.4,3.23,1.21,4.25c.81,1.02,1.93,1.53,3.38,1.53Z"/>
      </g>
    </g>
  </g>
</svg>