<?xml version="1.0" encoding="UTF-8"?>
<svg id="Layer_2" data-name="Layer 2" xmlns="http://www.w3.org/2000/svg" viewBox="0 0 200 200">
  <defs>
    <style>
      .cls-1 {
        fill: #f0f0f0;
      }

      .cls-1, .cls-2, .cls-3, .cls-4, .cls-5, .cls-6, .cls-7 {
        stroke-width: 0px;
      }

      .cls-2 {
        fill: none;
      }

      .cls-3 {
        fill: #009b43;
      }

      .cls-4 {
        fill: #e39125;
      }

      .cls-5 {
        fill: #01a2ce;
      }

      .cls-6 {
        fill: #ffcf44;
      }

      .cls-7 {
        fill: #c6c6c6;
      }
    </style>
  </defs>
  <g id="square-rounded">
    <g>
      <g>
        <path class="cls-1" d="M0,100h200V20c0-11.05-8.95-20-20-20H20C8.95,0,0,8.95,0,20v80Z"/>
        <path class="cls-3" d="M0,100h200V20c0-11.05-8.95-20-20-20H20C8.95,0,0,8.95,0,20v80Z"/>
        <path class="cls-1" d="M0,100h200v80c0,11.05-8.95,20-20,20H20c-11.05,0-20-8.95-20-20v-80Z"/>
      </g>
      <g>
        <path class="cls-6" d="M50.01,50h100v80c0,11.04-8.96,20-20,20h-60c-11.04,0-20-8.96-20-20V50h0Z"/>
        <g>
          <circle class="cls-2" cx="100.01" cy="60" r="7.5"/>
          <path class="cls-1" d="M100.49,52.98l1.32,4.08c.06.21.27.36.48.36h4.32c.51,0,.72.63.3.93l-3.48,2.52c-.18.12-.27.36-.18.57l1.32,4.08c.15.48-.39.87-.81.57l-3.45-2.49c-.18-.12-.42-.12-.6,0l-3.48,2.52c-.39.3-.96-.09-.81-.57l1.32-4.08c.06-.21,0-.45-.18-.57l-3.48-2.52c-.39-.3-.21-.93.3-.93h4.29c.21,0,.42-.15.48-.36l1.32-4.08c.21-.51.87-.51,1.02-.03Z"/>
        </g>
        <g>
          <path class="cls-3" d="M134.11,65.75c2.35-2.35,5.48-3.45,8.56-3.29.99.05,1.43,1.28.73,1.99l-10.6,10.6c-.7.7-1.93.26-1.99-.73-.16-3.08.94-6.21,3.29-8.56Z"/>
          <path class="cls-3" d="M120.27,79.58c-2.35,2.35-3.45,5.48-3.29,8.56.05.99,1.28,1.43,1.99.73l10.6-10.6c.7-.7.26-1.93-.73-1.99-3.08-.16-6.21.94-8.56,3.29Z"/>
          <rect class="cls-4" x="129.01" y="76.66" width="4.35" height="42.58" rx="1.16" ry="1.16"/>
          <path class="cls-3" d="M142.1,79.58c2.35,2.35,3.45,5.48,3.29,8.56-.05.99-1.28,1.43-1.99.73l-10.6-10.6c-.7-.7-.26-1.93.73-1.99,3.08-.16,6.21.94,8.56,3.29Z"/>
          <path class="cls-3" d="M128.26,65.75c-2.35-2.35-5.48-3.45-8.56-3.29-.99.05-1.43,1.28-.73,1.99l10.6,10.6c.7.7,1.93.26,1.99-.73.16-3.08-.94-6.21-3.29-8.56Z"/>
          <path class="cls-3" d="M140.97,71.01c3.33,0,6.32,1.44,8.38,3.73.67.74.11,1.92-.89,1.92h-14.99c-.99,0-1.55-1.18-.89-1.92,2.07-2.29,5.06-3.73,8.38-3.73Z"/>
          <path class="cls-3" d="M121.4,71.01c-3.33,0-6.32,1.44-8.38,3.73-.67.74-.11,1.92.89,1.92h14.99c.99,0,1.55-1.18.89-1.92-2.07-2.29-5.06-3.73-8.38-3.73Z"/>
          <circle class="cls-3" cx="131.19" cy="78.05" r="4"/>
        </g>
        <g>
          <path class="cls-3" d="M65.91,65.75c-2.35-2.35-5.48-3.45-8.56-3.29-.99.05-1.43,1.28-.73,1.99l10.6,10.6c.7.7,1.93.26,1.99-.73.16-3.08-.94-6.21-3.29-8.56Z"/>
          <path class="cls-3" d="M79.75,79.58c2.35,2.35,3.45,5.48,3.29,8.56-.05.99-1.28,1.43-1.99.73l-10.6-10.6c-.7-.7-.26-1.93.73-1.99,3.08-.16,6.21.94,8.56,3.29Z"/>
          <rect class="cls-4" x="66.66" y="76.66" width="4.35" height="42.58" rx="1.16" ry="1.16"/>
          <path class="cls-3" d="M57.93,79.58c-2.35,2.35-3.45,5.48-3.29,8.56.05.99,1.28,1.43,1.99.73l10.6-10.6c.7-.7.26-1.93-.73-1.99-3.08-.16-6.21.94-8.56,3.29Z"/>
          <path class="cls-3" d="M71.76,65.75c2.35-2.35,5.48-3.45,8.56-3.29.99.05,1.43,1.28.73,1.99l-10.6,10.6c-.7.7-1.93.26-1.99-.73-.16-3.08.94-6.21,3.29-8.56Z"/>
          <path class="cls-3" d="M59.05,71.01c-3.33,0-6.32,1.44-8.38,3.73-.67.74-.11,1.92.89,1.92h14.99c.99,0,1.55-1.18.89-1.92-2.07-2.29-5.06-3.73-8.38-3.73Z"/>
          <path class="cls-3" d="M78.62,71.01c3.33,0,6.32,1.44,8.38,3.73.67.74.11,1.92-.89,1.92h-14.99c-.99,0-1.55-1.18-.89-1.92,2.07-2.29,5.06-3.73,8.38-3.73Z"/>
          <path class="cls-3" d="M72.84,78.05c0,2.21-1.79,4-4,4s-4-1.79-4-4,1.79-4,4-4,4,1.79,4,4Z"/>
        </g>
        <g>
          <path class="cls-3" d="M100.01,110h-25v1.88c0,4.91,2.99,9.32,7.54,11.14l16.5,6.6c.61.25,1.3.25,1.91,0l16.5-6.6c4.56-1.82,7.54-6.23,7.54-11.14v-1.88h-25Z"/>
          <path class="cls-7" d="M77.01,70h46c1.1,0,2,.9,2,2v18h-50v-18c0-1.1.9-2,2-2Z"/>
          <g>
            <circle class="cls-6" cx="94.54" cy="80" r="3"/>
            <circle class="cls-6" cx="105.56" cy="80" r="3"/>
            <circle class="cls-1" cx="116.59" cy="80" r="3"/>
            <circle class="cls-1" cx="83.52" cy="80" r="3"/>
          </g>
          <rect class="cls-5" x="75.01" y="90" width="50" height="20"/>
          <path class="cls-1" d="M96.85,110c-.29,0-.58-.07-.84-.2-.44-.22-.78-.62-.92-1.09-.61-1.97-.93-4.01-.93-6.07s.32-4.12.94-6.08c.21-.64.75-1.12,1.41-1.25.11-.02.22-.03.33-.03.55,0,1.08.25,1.43.69,1.76,2.2,3.94,3.88,6.48,4.98.67.29,1.1.95,1.1,1.68s-.43,1.39-1.1,1.68c-2.54,1.1-4.71,2.77-6.45,4.96-.09.11-.19.21-.3.3-.32.26-.75.42-1.16.42Z"/>
          <rect class="cls-4" x="90.01" y="110" width="20" height="4" rx="2" ry="2"/>
        </g>
        <path class="cls-3" d="M129.52,139.29c-19.52,3.48-39.5,3.48-59.02,0-1.1-.2-1.82-1.26-1.61-2.35.25-1.31.5-2.62.75-3.93.21-1.08,1.24-1.78,2.32-1.59,18.56,3.3,37.55,3.3,56.11,0,1.08-.19,2.11.51,2.32,1.59.25,1.31.5,2.62.75,3.93.21,1.09-.51,2.16-1.61,2.35Z"/>
      </g>
    </g>
  </g>
</svg>