<?xml version="1.0" encoding="UTF-8"?>
<svg id="Layer_2" data-name="Layer 2" xmlns="http://www.w3.org/2000/svg" viewBox="0 0 200 200">
  <defs>
    <style>
      .cls-1 {
        fill: #213572;
      }

      .cls-1, .cls-2, .cls-3 {
        stroke-width: 0px;
      }

      .cls-2 {
        fill: #ef9926;
      }

      .cls-3 {
        fill: #f0f0f0;
      }
    </style>
  </defs>
  <g id="square-rounded">
    <g>
      <g>
        <path class="cls-1" d="M20,0C8.95,0,0,8.95,0,20v109.29L129.29,0H20Z"/>
        <path class="cls-2" d="M70.71,200h109.29c11.05,0,20-8.95,20-20v-109.29L70.71,200Z"/>
        <path class="cls-3" d="M200,20c0-11.05-8.95-20-20-20h-50.71L0,129.29v50.71c0,11.05,8.95,20,20,20h50.71L200,70.71V20Z"/>
      </g>
      <path class="cls-2" d="M144.8,97h-13.2c-.98,0-1.82-.71-1.97-1.68-.75-4.8-2.64-9.22-5.39-12.98-.57-.79-.47-1.88.22-2.56l9.34-9.34c1.16-1.16,1.34-3.07.23-4.28-1.16-1.27-3.13-1.3-4.34-.1l-9.47,9.47c-.69.69-1.78.79-2.56.22-3.76-2.74-8.18-4.63-12.98-5.39-.97-.15-1.68-.99-1.68-1.97v-13.29c0-1.32-.79-2.58-2.05-2.96-2.06-.63-3.95.89-3.95,2.85v13.4c0,.98-.71,1.82-1.68,1.97-4.8.75-9.22,2.64-12.98,5.39-.79.57-1.88.47-2.56-.22l-9.47-9.47c-1.39-1.39-3.8-1.13-4.81.77-.62,1.17-.29,2.61.65,3.55l9.39,9.39c.69.69.79,1.78.22,2.56-2.74,3.76-4.63,8.18-5.39,12.98-.15.97-.99,1.68-1.97,1.68h-13.2c-1.64,0-3.12,1.23-3.19,2.87-.08,1.72,1.3,3.13,3,3.13h13.4c.98,0,1.82.71,1.97,1.68.75,4.8,2.64,9.22,5.39,12.98.57.79.47,1.88-.22,2.56l-9.47,9.47c-1.17,1.17-1.17,3.07,0,4.24.59.59,1.35.88,2.12.88s1.54-.29,2.12-.88l9.47-9.47c.69-.69,1.78-.79,2.56-.22,3.76,2.74,8.18,4.63,12.98,5.39.97.15,1.68.99,1.68,1.97v13.2c0,1.64,1.23,3.12,2.87,3.19,1.72.08,3.13-1.3,3.13-3v-13.4c0-.98.71-1.82,1.68-1.97,4.8-.75,9.22-2.64,12.98-5.39.79-.57,1.88-.47,2.56.22l9.47,9.47c.59.59,1.35.88,2.12.88s1.54-.29,2.12-.88c1.17-1.17,1.17-3.07,0-4.24l-9.47-9.47c-.69-.69-.79-1.78-.22-2.56,2.74-3.76,4.63-8.18,5.39-12.98.15-.97.99-1.68,1.97-1.68h13.4c1.7,0,3.07-1.42,3-3.13s-1.55-2.87-3.19-2.87Z"/>
    </g>
  </g>
</svg>