<?xml version="1.0" encoding="UTF-8"?>
<svg id="Layer_2" data-name="Layer 2" xmlns="http://www.w3.org/2000/svg" viewBox="0 0 200 200">
  <defs>
    <style>
      .cls-1 {
        fill: #213572;
      }

      .cls-1, .cls-2, .cls-3, .cls-4, .cls-5, .cls-6, .cls-7, .cls-8 {
        stroke-width: 0px;
      }

      .cls-2 {
        fill: #f0f0f0;
      }

      .cls-3 {
        fill: #b19353;
      }

      .cls-4 {
        fill: #009b43;
      }

      .cls-5 {
        fill: #d9251d;
      }

      .cls-6 {
        fill: #01a2ce;
      }

      .cls-7 {
        fill: #ffcf44;
      }

      .cls-8 {
        fill: #c6c6c6;
      }
    </style>
  </defs>
  <g id="square-rounded">
    <g>
      <path class="cls-7" d="M20,200h160c11.05,0,20-8.95,20-20v-80L8.02,195.99c3.34,2.51,7.48,4.01,11.98,4.01Z"/>
      <path class="cls-4" d="M180,0H20C8.95,0,0,8.95,0,20v80L191.98,4.01c-3.34-2.51-7.48-4.01-11.98-4.01Z"/>
      <path class="cls-5" d="M191.98,4.01L0,100v80c0,6.55,3.16,12.34,8.02,15.99l191.98-95.99V20c0-6.55-3.16-12.34-8.02-15.99Z"/>
      <g>
        <ellipse class="cls-2" cx="100" cy="100" rx="37.15" ry="46.44"/>
        <path class="cls-8" d="M100,141.63c-6.4,0-12.6-2.41-17.92-6.97-1.21-1.04-1.35-2.86-.31-4.07,1.04-1.21,2.86-1.35,4.07-.31,4.26,3.65,9.16,5.59,14.16,5.59s9.9-1.93,14.16-5.59c1.21-1.04,3.03-.9,4.07.31,1.04,1.21.9,3.03-.31,4.07-5.32,4.56-11.51,6.97-17.92,6.97Z"/>
        <path class="cls-8" d="M100,85.28h0l-22.78-12.63c-1.44-.8-3.22.24-3.22,1.89v38.25c0,7.96,6.46,14.42,14.42,14.42h23.16c7.96,0,14.42-6.46,14.42-14.42v-38.25c0-1.65-1.77-2.7-3.22-1.89l-22.78,12.63Z"/>
        <g>
          <path class="cls-4" d="M126,74.55v14.11l-26,14.42-26-14.42v-14.11c0-1.65,1.78-2.7,3.22-1.9l22.78,12.64,22.78-12.64c1.44-.8,3.22.25,3.22,1.9Z"/>
          <polygon class="cls-5" points="100 103.08 74 88.66 74 106.45 83.96 111.97 100 120.87 116.04 111.97 126 106.45 126 88.66 100 103.08"/>
          <path class="cls-7" d="M116.04,111.97l-16.04,8.9-16.04-8.9-9.96-5.52v6.34c0,1.51.23,2.96.66,4.33,1.84,5.85,7.31,10.09,13.75,10.09h23.16c6.45,0,11.92-4.24,13.75-10.09.43-1.36.66-2.82.66-4.33v-6.34l-9.96,5.52Z"/>
        </g>
        <g>
          <path class="cls-6" d="M100,78.55c-9.04,0-16.39,9.62-16.39,21.45s7.35,21.45,16.39,21.45,16.39-9.62,16.39-21.45-7.35-21.45-16.39-21.45h0Z"/>
          <path class="cls-2" d="M100,82.4c6.8,0,12.54,8.06,12.54,17.6s-5.74,17.6-12.54,17.6-12.54-8.06-12.54-17.6,5.74-17.6,12.54-17.6"/>
          <path class="cls-4" d="M100,117.6c4.02,0,7.66-2.83,9.98-7.11l-.46-.46c-.98-.98-2.58-.98-3.57,0l-.3.3c-.98.98-2.58.98-3.57,0l-.3-.3c-.98-.98-2.58-.98-3.57,0l-.3.3c-.98.98-2.58.98-3.57,0l-.3-.3c-.98-.98-2.58-.98-3.57,0l-.46.46c2.31,4.28,5.95,7.11,9.98,7.11Z"/>
          <g>
            <g>
              <path class="cls-1" d="M101.05,90.71l4.74,8.56c.17.3.17.65,0,.96l-4.74,8.56c-.46.66-1.65.66-2.1,0l-4.74-8.56c-.17-.3-.17-.65,0-.96l4.74-8.56c.46-.66,1.65-.66,2.1,0Z"/>
              <rect class="cls-2" x="97.55" y="94.86" width="4.9" height="9.8" rx="1" ry="1"/>
            </g>
            <path class="cls-3" d="M107.74,109.3c-.8,0-1.44-.65-1.44-1.44v-16.2c0-.8.65-1.44,1.44-1.44s1.44.65,1.44,1.44v16.2c0,.8-.65,1.44-1.44,1.44Z"/>
            <path class="cls-3" d="M92.26,109.3c-.8,0-1.44-.65-1.44-1.44v-16.2c0-.8.65-1.44,1.44-1.44s1.44.65,1.44,1.44v16.2c0,.8-.65,1.44-1.44,1.44Z"/>
          </g>
        </g>
      </g>
    </g>
  </g>
</svg>