<?xml version="1.0" encoding="UTF-8"?>
<svg id="Layer_2" data-name="Layer 2" xmlns="http://www.w3.org/2000/svg" viewBox="0 0 200 200">
  <defs>
    <style>
      .cls-1 {
        fill: #213572;
      }

      .cls-1, .cls-2, .cls-3, .cls-4, .cls-5, .cls-6 {
        stroke-width: 0px;
      }

      .cls-2 {
        fill: #f0f0f0;
      }

      .cls-3 {
        fill: none;
      }

      .cls-4 {
        fill: #009b43;
      }

      .cls-5 {
        fill: #d9251d;
      }

      .cls-6 {
        fill: #ffcf44;
      }
    </style>
  </defs>
  <g id="square-rounded">
    <g>
      <g>
        <path class="cls-1" d="M20,0h160c11.04,0,20,8.96,20,20v113.33H0V20C0,8.96,8.96,0,20,0Z"/>
        <g>
          <path class="cls-5" d="M100,33.33C44.77,33.33,0,78.1,0,133.33h10c0-49.71,40.29-90,90-90s90,40.29,90,90h10c0-55.23-44.77-100-100-100Z"/>
          <path class="cls-6" d="M100,53.33c44.18,0,80,35.82,80,80h10c0-49.71-40.29-90-90-90S10,83.63,10,133.33h10c0-44.18,35.82-80,80-80Z"/>
          <path class="cls-4" d="M100,53.33c-44.18,0-80,35.82-80,80h10c0-38.66,31.34-70,70-70s70,31.34,70,70h10c0-44.18-35.82-80-80-80Z"/>
          <path class="cls-1" d="M100,63.33c-38.66,0-70,31.34-70,70h140c0-38.66-31.34-70-70-70Z"/>
        </g>
        <path class="cls-2" d="M180,200H20c-11.05,0-20-8.95-20-20v-46.67h200v46.67c0,11.05-8.95,20-20,20Z"/>
        <circle class="cls-6" cx="100" cy="98.33" r="20"/>
        <g>
          <rect class="cls-5" x="85" y="156.67" width="30" height="10" rx="2" ry="2"/>
          <rect class="cls-5" x="80" y="161.67" width="40" height="10" rx="2" ry="2" transform="translate(266.67 66.67) rotate(90)"/>
        </g>
      </g>
      <g>
        <path class="cls-6" d="M100.51,7.02l1.89,5.81c.07.23.29.38.53.38h6.06c.54,0,.76.69.33,1l-4.9,3.56c-.19.14-.28.39-.2.62l1.87,5.76c.17.51-.42.93-.85.62l-4.9-3.56c-.19-.14-.46-.14-.65,0l-4.9,3.56c-.43.32-1.02-.11-.85-.62l1.87-5.76c.07-.23,0-.48-.2-.62l-4.9-3.56c-.43-.32-.21-1,.33-1h6.06c.24,0,.45-.15.53-.38l1.89-5.81c.16-.5.86-.5,1.02,0"/>
        <circle class="cls-3" cx="100" cy="16.69" r="10"/>
      </g>
    </g>
  </g>
</svg>