<?xml version="1.0" encoding="UTF-8"?>
<svg id="Layer_2" data-name="Layer 2" xmlns="http://www.w3.org/2000/svg" xmlns:xlink="http://www.w3.org/1999/xlink" viewBox="0 0 200 200">
  <defs>
    <style>
      .cls-1 {
        fill: #f0f0f0;
      }

      .cls-1, .cls-2, .cls-3, .cls-4, .cls-5, .cls-6, .cls-7, .cls-8 {
        stroke-width: 0px;
      }

      .cls-2 {
        fill: #a93c40;
      }

      .cls-3 {
        fill: none;
      }

      .cls-4 {
        fill: #009b43;
      }

      .cls-5 {
        fill: #c6c6c6;
      }

      .cls-9 {
        clip-path: url(#clippath);
      }

      .cls-6 {
        fill: #01a2ce;
      }

      .cls-7 {
        fill: #ffcf44;
      }

      .cls-8 {
        fill: #c6c6c6;
      }
    </style>
    <clipPath id="clippath">
      <path class="cls-3" d="M100,50c-19.33,0-35,22.39-35,50h70c0-27.61-15.67-50-35-50Z"/>
    </clipPath>
  </defs>
  <g id="square-rounded">
    <g>
      <g>
        <path class="cls-1" d="M0,100h100V0H20C8.95,0,0,8.95,0,20v80Z"/>
        <path class="cls-1" d="M0,100h100V0H20C8.95,0,0,8.95,0,20v80Z"/>
        <path class="cls-1" d="M100,200h80c11.05,0,20-8.95,20-20v-80h-100v100Z"/>
        <path class="cls-6" d="M0,100h100v100H20c-11.05,0-20-8.95-20-20v-80Z"/>
        <path class="cls-6" d="M100,0h80c11.05,0,20,8.95,20,20v80h-100V0Z"/>
      </g>
      <path class="cls-7" d="M100,50c19.33,0,35,22.39,35,50s-15.67,50-35,50-35-22.39-35-50,15.67-50,35-50M100,44c-11.36,0-21.9,6.11-29.66,17.2-7.31,10.44-11.34,24.22-11.34,38.8s4.03,28.35,11.34,38.8c7.77,11.09,18.3,17.2,29.66,17.2s21.9-6.11,29.66-17.2c7.31-10.44,11.34-24.22,11.34-38.8s-4.03-28.35-11.34-38.8c-7.77-11.09-18.3-17.2-29.66-17.2h0Z"/>
      <g>
        <path class="cls-6" d="M100,50c-19.33,0-35,22.39-35,50h70c0-27.61-15.67-50-35-50Z"/>
        <path class="cls-6" d="M69.69,125c6.05,14.94,17.35,25,30.31,25s24.25-10.06,30.31-25h-60.61Z"/>
        <path class="cls-4" d="M135,100h-70c0,9.11,1.71,17.64,4.69,25h60.61c2.98-7.36,4.69-15.89,4.69-25Z"/>
        <g class="cls-9">
          <path class="cls-2" d="M66.33,100c-.74,0-1.33-.6-1.33-1.33v-12.16c0-.4.18-.78.49-1.03.24-.2.54-.3.85-.3.09,0,.17,0,.26.02,3.94.77,7.12,3.62,8.32,7.44.09.29.36.48.67.48.15,0,.29-.04.41-.13,2.87-2.05,4.58-5.37,4.58-8.89v-1.98c0-.6.4-1.13.98-1.29,8.88-2.43,15.49-10.2,16.47-19.34.05-.5.38-.92.85-1.1.16-.06.32-.09.48-.09.32,0,.64.12.89.34.22.2.45.41.66.62,3.68,3.56,6.06,8.3,6.71,13.34.02.02.48.48,1.11.48.37,0,.72-.16,1.03-.48,3.63-8.11,11.72-13.34,20.6-13.34h3.32c.74,0,1.33.6,1.33,1.33v36.09c0,.74-.6,1.33-1.33,1.33h-67.33Z"/>
        </g>
        <g>
          <path class="cls-8" d="M100,141c-11.03,0-20-8.97-20-20s8.97-20,20-20,20,8.97,20,20-8.97,20-20,20Z"/>
          <path class="cls-1" d="M100,102c10.49,0,19,8.51,19,19s-8.51,19-19,19-19-8.51-19-19,8.51-19,19-19M100,100c-11.58,0-21,9.42-21,21s9.42,21,21,21,21-9.42,21-21-9.42-21-21-21h0Z"/>
        </g>
        <path class="cls-8" d="M124.49,77.46c.18-.32-.15-.7-.5-.57l-22.43,8.46-.72.27c-.63-1.37-1.6-2.57-2.82-3.47-1.25-.93-2.75-1.54-4.41-1.71l-18.16-1.9c-.23-.02-.44.15-.45.37-.28,4.76,3.24,8.94,8.03,9.44l6.6.69c.42.04.49.62.1.77l-6.29,2.37c-.35.13-.35.63,0,.76,3.3,1.17,6.83,1.85,10.51,1.94.13,0,.26.07.33.19l2.01,3.34c1.26,2.09,4.26,2.12,5.47.07l2.55-4.33c.27-.46.71-.81,1.22-.98s.98-.34,1.47-.53c.69-.27,1.47-.19,2.09.23l.05.04,2.97,2.06c.19.13.46.08.57-.12.33-.61.5-1.27.5-1.94,0-.85-.27-1.69-.78-2.39-.14-.19-.11-.46.1-.59,4.99-3.05,9.14-7.36,12-12.48Z"/>
      </g>
      <path class="cls-6" d="M87.64,125.01c1.69,5.22,6.58,8.99,12.36,8.99s10.67-3.77,12.36-8.99c-3.71-1.92-7.91-3.01-12.36-3.01s-8.66,1.09-12.36,3.01Z"/>
      <path class="cls-6" d="M100,116c4.52,0,8.84.92,12.76,2.57-1.14-6.02-6.42-10.57-12.76-10.57s-11.63,4.55-12.76,10.57c3.93-1.65,8.24-2.57,12.76-2.57Z"/>
      <g>
        <path class="cls-1" d="M117.09,160.04h0c-.7-1.48-.18-3.28,1.15-4,.78-.5,1.6-.94,2.36-1.49.63-.44,1.4-.57,2.15-.43.73.11,1.45.5,1.96,1.16h0c.51.65.7,1.46.58,2.25-.14.76-.6,1.5-1.33,2-.87.62-1.81,1.14-2.71,1.71-1.58.86-3.44.33-4.15-1.19Z"/>
        <path class="cls-4" d="M128.03,152.47h0c-1.1-1.21-1.13-3.1-.03-4.18l1.9-2.1c.98-1.21,2.86-1.36,4.17-.38h0c1.34,1.01,1.5,2.92.39,4.28l-2.12,2.35c-1.26,1.24-3.18,1.27-4.31.03Z"/>
        <path class="cls-4" d="M136.58,142.27c-1.37-.92-1.77-2.72-.98-4.07.51-.8.94-1.66,1.41-2.49.74-1.38,2.49-1.97,4-1.26,1.49.7,2.11,2.55,1.29,4.09-.51.91-.98,1.84-1.54,2.73-.89,1.51-2.8,1.93-4.17,1Z"/>
        <path class="cls-4" d="M142.76,130.46c-1.54-.64-2.26-2.32-1.76-3.81.33-.9.64-1.81.92-2.73.5-1.5,2.09-2.41,3.7-1.98,1.59.42,2.56,2.13,2.02,3.78-.3,1-.63,1.98-.99,2.96-.56,1.64-2.38,2.42-3.89,1.79Z"/>
        <path class="cls-4" d="M146.66,117.72h0c-1.62-.36-2.68-1.91-2.38-3.46l.45-2.86c.19-1.58,1.7-2.72,3.33-2.57,1.67.16,2.82,1.68,2.61,3.39l-.48,3.07c-.32,1.7-1.91,2.78-3.53,2.43Z"/>
        <path class="cls-4" d="M148.39,104.5h0c-1.66-.1-2.9-1.46-2.9-3.05.03-.97.03-1.93,0-2.9,0-1.59,1.24-2.95,2.9-3.05h0c1.65-.1,3.09,1.22,3.1,2.95.03,1.03.03,2.07,0,3.1,0,1.72-1.45,3.04-3.1,2.95Z"/>
        <path class="cls-4" d="M148.06,91.17c-1.63.16-3.14-.99-3.33-2.57l-.45-2.86c-.29-1.56.76-3.11,2.38-3.46,1.61-.36,3.21.73,3.53,2.43l.48,3.07c.21,1.71-.95,3.23-2.61,3.39Z"/>
        <path class="cls-4" d="M145.63,78.06c-1.61.43-3.21-.48-3.7-1.98-.28-.92-.58-1.83-.92-2.73-.51-1.5.21-3.18,1.76-3.81h0c1.52-.63,3.33.15,3.89,1.79.36.98.69,1.96.99,2.96.54,1.65-.43,3.36-2.02,3.78Z"/>
        <path class="cls-4" d="M141.01,65.56c-1.51.71-3.26.12-4-1.26-.47-.83-.9-1.69-1.41-2.49-.79-1.35-.39-3.15.98-4.07,1.38-.93,3.29-.5,4.17,1,.56.89,1.03,1.82,1.54,2.73.82,1.54.2,3.39-1.29,4.09Z"/>
        <path class="cls-4" d="M134.07,54.19h0c-1.3.98-3.19.83-4.17-.38l-1.9-2.1c-1.1-1.08-1.07-2.97.03-4.18,1.13-1.24,3.05-1.22,4.31.03l2.12,2.35c1.11,1.36.95,3.27-.39,4.28Z"/>
      </g>
      <g>
        <path class="cls-6" d="M82.91,160.04h0c-.71,1.52-2.57,2.05-4.15,1.19-.9-.57-1.84-1.09-2.71-1.71-.73-.51-1.19-1.24-1.33-2-.12-.79.07-1.59.58-2.25h0c.51-.65,1.23-1.04,1.96-1.16.75-.14,1.52-.01,2.15.43.76.54,1.58.99,2.36,1.49,1.33.72,1.84,2.52,1.15,4Z"/>
        <path class="cls-4" d="M71.97,152.47h0c-1.13,1.24-3.05,1.22-4.31-.03l-2.12-2.35c-1.11-1.36-.95-3.27.39-4.28h0c1.3-.98,3.19-.83,4.17.38l1.9,2.1c1.1,1.08,1.07,2.97-.03,4.18Z"/>
        <path class="cls-4" d="M63.42,142.27h0c-1.38.93-3.29.5-4.17-1-.56-.89-1.03-1.82-1.54-2.73-.82-1.54-.2-3.39,1.29-4.09,1.51-.71,3.26-.12,4,1.26.47.83.9,1.69,1.41,2.49.79,1.35.39,3.15-.98,4.07Z"/>
        <path class="cls-4" d="M57.24,130.46h0c-1.52.63-3.33-.15-3.89-1.79-.36-.98-.69-1.96-.99-2.96-.54-1.65.43-3.36,2.02-3.78h0c1.61-.43,3.21.48,3.7,1.98.28.92.58,1.83.92,2.73.51,1.5-.21,3.18-1.76,3.81Z"/>
        <path class="cls-4" d="M53.34,117.72h0c-1.61.36-3.21-.73-3.53-2.43l-.48-3.07c-.21-1.71.95-3.23,2.61-3.39h0c1.63-.16,3.14.99,3.33,2.57l.45,2.86c.29,1.56-.76,3.11-2.38,3.46Z"/>
        <path class="cls-4" d="M51.61,104.5c-1.65.1-3.09-1.22-3.1-2.95-.03-1.03-.03-2.07,0-3.1,0-1.72,1.45-3.04,3.1-2.95h0c1.66.1,2.9,1.46,2.9,3.05-.03.97-.03,1.93,0,2.9,0,1.59-1.24,2.95-2.9,3.05Z"/>
        <path class="cls-4" d="M51.94,91.17c-1.67-.16-2.82-1.68-2.61-3.39l.48-3.07c.32-1.7,1.91-2.78,3.53-2.43h0c1.62.36,2.68,1.91,2.38,3.46l-.45,2.86c-.19,1.58-1.7,2.72-3.33,2.57Z"/>
        <path class="cls-4" d="M54.37,78.06h0c-1.59-.42-2.56-2.13-2.02-3.78.3-1,.63-1.98.99-2.96.56-1.64,2.38-2.42,3.89-1.79h0c1.54.64,2.26,2.32,1.76,3.81-.33.9-.64,1.81-.92,2.73-.5,1.5-2.09,2.41-3.7,1.98Z"/>
        <path class="cls-4" d="M58.99,65.56c-1.49-.7-2.11-2.55-1.29-4.09.51-.91.98-1.84,1.54-2.73.89-1.51,2.8-1.93,4.17-1h0c1.37.92,1.77,2.72.98,4.07-.51.8-.94,1.66-1.41,2.49-.74,1.38-2.49,1.97-4,1.26Z"/>
        <path class="cls-4" d="M65.93,54.19h0c-1.34-1.01-1.5-2.92-.39-4.28l2.12-2.35c1.26-1.24,3.18-1.27,4.31-.03,1.1,1.21,1.13,3.1.03,4.18l-1.9,2.1c-.98,1.21-2.86,1.36-4.17.38Z"/>
      </g>
      <path class="cls-7" d="M100,50c19.33,0,35,22.39,35,50s-15.67,50-35,50-35-22.39-35-50,15.67-50,35-50M100,44c-11.36,0-21.9,6.11-29.66,17.2-7.31,10.44-11.34,24.22-11.34,38.8s4.03,28.35,11.34,38.8c7.77,11.09,18.3,17.2,29.66,17.2s21.9-6.11,29.66-17.2c7.31-10.44,11.34-24.22,11.34-38.8s-4.03-28.35-11.34-38.8c-7.77-11.09-18.3-17.2-29.66-17.2h0Z"/>
      <path class="cls-8" d="M133.93,159.91c-.71-1.65-2.6-2.46-4.28-1.82-9.08,3.45-19.26,5.26-29.64,5.26s-20.56-1.81-29.64-5.26c-1.68-.64-3.57.16-4.28,1.82l-2.08,4.83c-.76,1.76.09,3.81,1.88,4.5,10.57,4.06,22.03,6.12,34.12,6.12s23.56-2.06,34.12-6.12c1.79-.69,2.64-2.74,1.88-4.5l-2.08-4.83Z"/>
      <g>
        <circle class="cls-3" cx="100" cy="30" r="10"/>
        <g>
          <path class="cls-1" d="M94.56,39.3c-.54,0-1.06-.26-1.38-.71-.32-.43-.41-.98-.25-1.49l1.69-5.23-4.45-3.22c-.61-.47-.84-1.23-.6-1.92.23-.69.86-1.13,1.59-1.13h5.48l1.69-5.23c.31-.76.96-1.21,1.67-1.21s1.37.47,1.59,1.18l1.69,5.22h5.52c.74,0,1.39.47,1.62,1.17.22.7-.03,1.45-.64,1.88l-4.44,3.22,1.69,5.22c.17.53.08,1.08-.24,1.51-.32.43-.83.69-1.37.69-.36,0-.7-.11-1-.33l-4.42-3.19-4.45,3.23c-.27.21-.62.33-.99.33Z"/>
          <path class="cls-5" d="M100,20.16c.28,0,.54.16.64.48l1.76,5.44c.08.28.36.48.64.48h5.76c.68,0,.96.84.4,1.24l-4.64,3.36c-.24.16-.36.48-.24.76l1.76,5.44c.15.48-.22.9-.66.9-.14,0-.29-.04-.42-.14l-4.6-3.32c-.12-.08-.26-.12-.4-.12s-.28.04-.4.12l-4.64,3.36c-.13.1-.27.14-.4.14-.43,0-.83-.42-.68-.9l1.76-5.44c.08-.28,0-.6-.24-.76l-4.64-3.36c-.52-.4-.28-1.24.4-1.24h5.72c.28,0,.56-.2.64-.48l1.76-5.44c.14-.35.44-.52.72-.52M100,18.16c-1.12,0-2.13.69-2.57,1.75-.02.05-.04.1-.05.15l-1.47,4.54h-4.75c-1.17,0-2.16.71-2.54,1.81-.37,1.1,0,2.31.92,3.02.02.01.03.02.05.03l3.86,2.79-1.47,4.53c-.26.84-.12,1.71.39,2.4.51.7,1.33,1.11,2.19,1.11.58,0,1.13-.18,1.59-.53l3.85-2.79,3.83,2.76c.48.34,1.03.52,1.59.52.85,0,1.67-.41,2.17-1.1.51-.69.65-1.57.39-2.4l-1.47-4.55,3.86-2.79c.95-.68,1.35-1.88,1-3-.36-1.11-1.39-1.86-2.57-1.86h-4.79l-1.47-4.54c-.35-1.1-1.37-1.86-2.54-1.86h0Z"/>
        </g>
      </g>
    </g>
  </g>
</svg>