<?xml version="1.0" encoding="UTF-8"?>
<svg id="Layer_2" data-name="Layer 2" xmlns="http://www.w3.org/2000/svg" viewBox="0 0 200 200">
  <defs>
    <style>
      .cls-1 {
        fill: #213572;
      }

      .cls-1, .cls-2, .cls-3, .cls-4 {
        stroke-width: 0px;
      }

      .cls-2 {
        fill: #f0f0f0;
      }

      .cls-3 {
        fill: none;
      }

      .cls-4 {
        fill: #d9251d;
      }
    </style>
  </defs>
  <g id="square-rounded">
    <g>
      <g>
        <g>
          <path class="cls-4" d="M0,180c0,11.05,8.95,20,20,20h130.5L0,49.5v130.5Z"/>
          <path class="cls-4" d="M200,20c0-11.05-8.95-20-20-20H49.5l150.5,150.5V20Z"/>
        </g>
        <path class="cls-2" d="M200,180v-29.5L49.5,0h-29.5C8.95,0,0,8.95,0,20v29.5l150.5,150.5h29.5c11.05,0,20-8.95,20-20Z"/>
      </g>
      <g>
        <path class="cls-1" d="M101.53,71.06l5.66,17.43c.22.68.86,1.15,1.58,1.15h18.18c1.61,0,2.28,2.06.98,3.01l-14.71,10.68c-.58.42-.83,1.17-.6,1.86l5.62,17.29c.5,1.53-1.26,2.8-2.56,1.86l-14.71-10.69c-.58-.42-1.37-.42-1.95,0l-14.71,10.68c-1.3.95-3.06-.33-2.56-1.86l5.62-17.29c.22-.68-.02-1.44-.6-1.86l-14.71-10.69c-1.3-.95-.63-3.01.98-3.01h18.18c.72,0,1.36-.46,1.58-1.15l5.66-17.43c.48-1.49,2.59-1.49,3.07,0"/>
        <circle class="cls-3" cx="100" cy="100.06" r="30"/>
      </g>
    </g>
  </g>
</svg>