<?xml version="1.0" encoding="UTF-8"?>
<svg id="Layer_2" data-name="Layer 2" xmlns="http://www.w3.org/2000/svg" viewBox="0 0 200 200">
  <defs>
    <style>
      .cls-1 {
        fill: #213572;
      }

      .cls-1, .cls-2, .cls-3 {
        stroke-width: 0px;
      }

      .cls-2 {
        fill: #f0f0f0;
      }

      .cls-3 {
        fill: #d9251d;
      }
    </style>
  </defs>
  <g id="square-rounded">
    <g>
      <g>
        <rect class="cls-3" y="100" width="200" height="50"/>
        <path class="cls-2" d="M0,150h200v30c0,11.04-8.96,20-20,20H20c-11.04,0-20-8.96-20-20v-30h0Z"/>
      </g>
      <g>
        <path class="cls-3" d="M100,0h80c11.04,0,20,8.96,20,20v30h-100V0h0Z"/>
        <rect class="cls-2" x="100" y="50" width="100" height="50"/>
      </g>
      <path class="cls-1" d="M20,0h80v100H0V20C0,8.96,8.96,0,20,0Z"/>
      <path class="cls-2" d="M45.79,16.43L12.14,74.71c-1.87,3.24.47,7.29,4.21,7.29h67.3c3.74,0,6.08-4.05,4.21-7.29L54.21,16.43c-1.87-3.24-6.54-3.24-8.41,0L12.14,74.71c-1.87,3.24.47,7.29,4.21,7.29h67.3c3.74,0,6.08-4.05,4.21-7.29L54.21,16.43c-1.87-3.24-6.54-3.24-8.41,0Z"/>
    </g>
  </g>
</svg>