<?xml version="1.0" encoding="UTF-8"?>
<svg id="Layer_2" data-name="Layer 2" xmlns="http://www.w3.org/2000/svg" viewBox="0 0 200 200">
  <defs>
    <style>
      .cls-1 {
        fill: #f0f0f0;
      }

      .cls-1, .cls-2, .cls-3 {
        stroke-width: 0px;
      }

      .cls-2 {
        fill: #009b43;
      }

      .cls-3 {
        fill: #ffcf44;
      }
    </style>
  </defs>
  <g id="rounded">
    <g>
      <rect class="cls-1" width="200" height="200" rx="20" ry="20"/>
      <rect class="cls-2" x="50" y="50" width="100" height="100" rx="10" ry="10"/>
      <path class="cls-3" d="M147.12,97.88l-7-7c-.56-.56-1.32-.88-2.12-.88h-28v-28c0-.8-.32-1.56-.88-2.12l-7-7c-1.17-1.17-3.07-1.17-4.24,0l-7,7c-.56.56-.88,1.32-.88,2.12v28h-28c-.8,0-1.56.32-2.12.88l-7,7c-1.17,1.17-1.17,3.07,0,4.24l7,7c.56.56,1.32.88,2.12.88h28v28c0,.8.32,1.56.88,2.12l7,7c1.17,1.17,3.07,1.17,4.24,0l7-7c.56-.56.88-1.32.88-2.12v-28h28c.8,0,1.56-.32,2.12-.88l7-7c1.17-1.17,1.17-3.07,0-4.24Z"/>
      <path class="cls-2" d="M118.23,98.23c.98.98.98,2.56,0,3.54l-8.23,8.23-8.23,8.23c-.98.98-2.56.98-3.54,0l-8.23-8.23-8.23-8.23c-.98-.98-.98-2.56,0-3.54l8.23-8.23,8.23-8.23c.98-.98,2.56-.98,3.54,0l8.23,8.23,8.23,8.23Z"/>
    </g>
  </g>
</svg>